<svg width="70" height="70" viewBox="0 0 70 70" fill="none" xmlns="http://www.w3.org/2000/svg">
<g clip-path="url(#clip0_307_1198)">
<rect width="70" height="70" fill="white"/>
<circle cx="35" cy="35" r="34.5" fill="#FF7342" stroke="#282828"/>
<circle cx="35" cy="35" r="27.5" stroke="#282828"/>
<rect x="4.43555" y="39.5596" width="61.8002" height="5.36639" transform="rotate(-15 4.43555 39.5596)" fill="#FF7342"/>
<path d="M31.7088 35.1615L30.6675 35.4405C30.6091 35.3305 30.5277 35.1349 30.4233 34.8537C30.3214 34.5815 30.211 34.2777 30.0922 33.9423C29.98 33.5956 29.8783 33.2701 29.7871 32.966C29.6935 32.6529 29.625 32.4152 29.5815 32.2529L27.335 23.8687C27.2014 23.7306 27.0148 23.6115 26.7754 23.5114C26.5451 23.4088 26.2994 23.3394 26.0384 23.303L26.0828 22.7114C26.0912 22.6705 26.1064 22.6374 26.1287 22.6121C26.1509 22.5868 26.198 22.5645 26.2702 22.5452C26.516 22.489 26.7937 22.4436 27.1033 22.4089C27.4219 22.3719 27.7351 22.3508 28.0429 22.3456C28.3483 22.3314 28.5975 22.3419 28.7906 22.3772C28.9697 22.3968 29.0781 22.5127 29.1156 22.7249L29.2835 23.622L31.3127 31.1948C31.3755 31.4292 31.4381 31.7168 31.5004 32.0577C31.5603 32.3895 31.6115 32.7429 31.6541 33.118C31.6966 33.4931 31.722 33.8583 31.7302 34.2136C31.7499 34.5755 31.7428 34.8915 31.7088 35.1615ZM24.0483 25.7205L24.3237 26.7482C24.1884 26.7844 24.0126 26.8316 23.7963 26.8895C23.5889 26.9451 23.3725 27.0031 23.1472 27.0635C22.9218 27.1238 22.7156 27.1839 22.5287 27.2437C22.3484 27.292 22.2189 27.3315 22.1402 27.3623C21.9893 27.4123 21.7982 27.4925 21.5669 27.6028C21.3422 27.7017 21.1604 27.7987 21.0217 27.8939C20.7559 27.8395 20.484 27.7625 20.2061 27.6631C19.9373 27.5612 19.7 27.4509 19.4942 27.3321C19.4118 27.2768 19.3801 27.2129 19.3993 27.1401L19.4666 26.9046C19.7017 26.8803 19.9523 26.8421 20.2186 26.7901C20.4939 26.7357 20.7307 26.6819 20.9291 26.6287C21.0282 26.6022 21.1815 26.5611 21.3888 26.5055C21.5962 26.45 21.8261 26.3884 22.0785 26.3207C22.3375 26.2417 22.5921 26.1638 22.8421 26.0872C23.1011 26.0081 23.3388 25.9396 23.5552 25.8816C23.7691 25.8146 23.9335 25.7609 24.0483 25.7205ZM25.9392 26.2864L23.7926 26.876L24.0113 25.7449L24.5266 25.2879C24.6317 25.2114 24.7444 25.1813 24.8647 25.1973C25.0078 25.2266 25.1976 25.2676 25.4339 25.3202C25.6792 25.3704 25.8612 25.4183 25.9797 25.4638C26.0753 25.4962 26.1061 25.5749 26.0719 25.7L25.9392 26.2864ZM21.4951 34.6371L21.1386 34.4427C21.0472 34.39 21.0233 34.319 21.0671 34.23C21.6403 33.4483 22.1282 32.6364 22.5306 31.7942C22.9306 30.943 23.2356 30.098 23.4456 29.259C23.6622 28.4087 23.7779 27.6143 23.7926 26.876L24.7902 26.2174L25.9392 26.2864C25.928 26.9657 25.8221 27.6705 25.6216 28.4006C25.43 29.1283 25.1513 29.8552 24.7855 30.5813C24.4196 31.3074 23.9797 32.0098 23.4659 32.6886C22.9497 33.3584 22.3682 33.9829 21.7213 34.562C21.6457 34.6402 21.5703 34.6653 21.4951 34.6371ZM42.607 25.6466L43.1665 25.1923C43.3673 25.1482 43.5897 25.1127 43.8337 25.086C44.0844 25.0478 44.3194 25.0235 44.5389 25.013C44.7649 24.9911 44.9425 24.987 45.0718 25.0006C45.251 25.0203 45.3635 25.1157 45.4094 25.287C45.4626 25.4854 45.4568 25.6802 45.3921 25.8714C45.3364 26.0603 45.265 26.1905 45.1779 26.2622C45.0649 26.2731 44.89 26.3055 44.6532 26.3593C44.4254 26.4107 44.1898 26.469 43.9464 26.5342C43.7096 26.588 43.5145 26.6354 43.3613 26.6765C43.208 26.7175 42.9478 26.7921 42.5806 26.9002C42.2199 26.9968 41.7974 27.1148 41.313 27.2543C40.8352 27.3823 40.3361 27.5209 39.8156 27.67C39.2927 27.8101 38.7936 27.9487 38.3182 28.0857C37.8428 28.2228 37.426 28.3441 37.0678 28.4498C36.7186 28.553 36.4731 28.6284 36.3313 28.6761C36.2165 28.7165 36.0557 28.7838 35.849 28.8778C35.6489 28.9604 35.4512 29.052 35.256 29.1527C35.0583 29.2443 34.8966 29.3262 34.7711 29.3985C34.4602 29.3562 34.1282 29.2712 33.7752 29.1436C33.4311 29.0136 33.1288 28.8771 32.8683 28.7344C32.7883 28.6882 32.7555 28.6197 32.7698 28.5289L32.8362 28.2357C33.1368 28.2035 33.4574 28.1562 33.7983 28.0939C34.1481 28.0291 34.4594 27.965 34.7323 27.9016C34.8675 27.8653 35.0929 27.8049 35.4085 27.7204C35.724 27.6358 36.0981 27.5356 36.5309 27.4196C36.9612 27.2947 37.4243 27.1658 37.9201 27.0329C38.4135 26.891 38.907 26.7491 39.4004 26.6073C39.8938 26.4654 40.3557 26.332 40.786 26.207C41.2253 26.0796 41.6061 25.9679 41.9282 25.872C42.2479 25.767 42.4742 25.6918 42.607 25.6466ZM41.6864 28.0529L41.9908 29.1888C41.7991 29.2305 41.568 29.2876 41.2975 29.3601C41.0361 29.4301 40.7578 29.5095 40.4627 29.5982C40.1742 29.6755 39.8914 29.7561 39.6144 29.84C39.3439 29.9125 39.0972 29.9834 38.8742 30.0528C38.6579 30.1108 38.4968 30.1588 38.391 30.1968C38.2041 30.2566 37.977 30.3464 37.7096 30.4664C37.4512 30.5839 37.2403 30.6984 37.0769 30.8098C36.7751 30.7651 36.4705 30.6921 36.1631 30.5909C35.8648 30.4872 35.598 30.3751 35.3628 30.2546C35.2738 30.2108 35.2364 30.1435 35.2507 30.0527L35.3171 29.7595C35.5882 29.7255 35.8794 29.6765 36.1908 29.6124C36.5022 29.5483 36.775 29.4848 37.0094 29.422C37.1447 29.3858 37.3655 29.3266 37.6721 29.2445C37.9852 29.1509 38.3356 29.0522 38.7232 28.9483C39.1085 28.8354 39.4982 28.7213 39.8925 28.606C40.2867 28.4907 40.6449 28.3851 40.9671 28.2891C41.2868 28.1841 41.5266 28.1054 41.6864 28.0529ZM43.573 28.7648L41.6897 29.255L41.6729 28.0565L42.1522 27.6816C42.2369 27.601 42.3361 27.5744 42.4497 27.6019C42.5929 27.6312 42.7736 27.6746 42.9919 27.732C43.2168 27.7781 43.3828 27.8206 43.4898 27.8595C43.5674 27.8967 43.6015 27.9697 43.592 28.0785L43.573 28.7648ZM43.8457 32.0543L42.7368 32.3515C42.6669 32.2349 42.5849 32.0733 42.4909 31.8666C42.4083 31.6665 42.3278 31.4562 42.2494 31.2356C42.1709 31.0151 42.1124 30.8327 42.0738 30.6884L41.686 29.2415L43.5657 28.7378L43.8006 29.7764C43.8585 29.9928 43.8967 30.2434 43.9151 30.5284C43.9449 30.8199 43.9518 31.0983 43.9359 31.3634C43.9314 31.6352 43.9014 31.8655 43.8457 32.0543ZM42.4362 24.5763L36.241 26.3378L36.6111 25.1226C36.7914 25.0743 37.0168 25.0139 37.2872 24.9414C37.5577 24.869 37.8507 24.7905 38.1662 24.7059C38.4793 24.6123 38.7937 24.5233 39.1092 24.4387C39.4223 24.3452 39.7129 24.2577 39.981 24.1762C40.249 24.0947 40.4675 24.0265 40.6363 23.9716L40.984 23.6465C41.189 23.5819 41.4246 23.5236 41.6909 23.4716C41.9571 23.4196 42.1672 23.3923 42.3211 23.3897C42.5045 23.3889 42.6167 23.4651 42.6578 23.6183C42.7109 23.8167 42.7331 23.9895 42.7242 24.1368C42.722 24.2727 42.7044 24.3692 42.6714 24.4264C42.6318 24.4949 42.5534 24.5449 42.4362 24.5763ZM36.9221 25.0393L36.2545 26.3342C35.826 26.4297 35.4929 26.4126 35.2552 26.2831C35.0176 26.1535 34.8505 25.9084 34.7538 25.5478L34.5872 24.9257L36.4804 24.4184L36.5927 24.8376C36.641 25.018 36.7508 25.0852 36.9221 25.0393ZM36.5347 24.6213L34.6415 25.1286L34.4857 24.5471C34.369 24.4721 34.2276 24.4133 34.0616 24.3708C33.9023 24.3169 33.733 24.2801 33.5538 24.2605L33.5298 23.8466C33.531 23.7787 33.5766 23.7326 33.6668 23.7085C33.8651 23.6553 34.1277 23.5898 34.4547 23.5118C34.7793 23.4249 35.1017 23.3481 35.4221 23.2816C35.7491 23.2037 35.9961 23.152 36.1632 23.1265L36.397 24.1074L36.5347 24.6213ZM39.4348 19.9743L39.7211 21.0427C39.5768 21.0813 39.3695 21.1369 39.099 21.2093C38.8376 21.2794 38.5503 21.3612 38.2372 21.4548C37.9217 21.5393 37.6073 21.6284 37.2942 21.7219C36.9901 21.8131 36.7175 21.8958 36.4765 21.97C36.2422 22.0328 36.0709 22.0787 35.9627 22.1077C35.7938 22.1626 35.5925 22.2407 35.3587 22.342C35.134 22.4409 34.9285 22.5394 34.7422 22.6376C34.474 22.5742 34.2043 22.4871 33.933 22.3762C33.6617 22.2653 33.4175 22.1471 33.2003 22.0217C33.1203 21.9755 33.0898 21.916 33.109 21.8433L33.1592 21.5979C33.3852 21.576 33.6551 21.5375 33.9689 21.4824C34.2827 21.4273 34.5207 21.378 34.683 21.3346C34.8092 21.3007 35.0301 21.2416 35.3456 21.157C35.6611 21.0725 36.0217 20.9758 36.4274 20.8671C36.8307 20.7494 37.234 20.6317 37.6373 20.514C38.0495 20.3938 38.4168 20.2858 38.7389 20.1898C39.061 20.0938 39.293 20.022 39.4348 19.9743ZM41.2463 20.4601L39.3118 21.1378L39.4078 19.9816L39.9376 19.5787C40.0157 19.5095 40.1148 19.4829 40.2351 19.499C40.3644 19.5127 40.5357 19.5392 40.7492 19.5787C40.9693 19.6067 41.1317 19.6356 41.2363 19.6656C41.3409 19.6955 41.3762 19.773 41.3421 19.8981L41.2463 20.4601ZM41.2053 21.6595L39.515 22.1125C39.5137 22.0355 39.5006 21.9327 39.4758 21.8041C39.451 21.6755 39.4217 21.548 39.3879 21.4218C39.3631 21.2932 39.3377 21.1985 39.3118 21.1378L41.2463 20.4601C41.2638 20.5616 41.2694 20.6906 41.263 20.8469C41.2656 21.0008 41.2624 21.1514 41.2536 21.2987C41.2447 21.446 41.2287 21.5663 41.2053 21.6595ZM40.1258 26.9347L38.2867 27.4275L37.6744 25.1421L39.5135 24.6493L40.1258 26.9347ZM41.7033 22.5986L36.2753 24.14L36.0144 23.1664C36.1767 23.1229 36.3705 23.0709 36.5959 23.0106C36.8303 22.9478 37.0783 22.8813 37.3397 22.8113C37.5987 22.7322 37.8532 22.6543 38.1033 22.5777C38.3533 22.501 38.582 22.4349 38.7893 22.3794C38.9942 22.3148 39.1541 22.2623 39.2689 22.2219L39.7538 21.976C40.086 21.8097 40.3513 21.6999 40.5497 21.6468C40.748 21.5936 40.9142 21.5829 41.0484 21.6146L41.5391 21.715C41.6413 21.736 41.7045 21.7915 41.7286 21.8816C41.7649 22.0169 41.7774 22.1536 41.7661 22.2919C41.7549 22.4302 41.7339 22.5325 41.7033 22.5986ZM32.0987 43.919L32.3564 44.5021C32.4125 44.6031 32.3855 44.6828 32.2755 44.7412C32.0178 44.8972 31.7105 45.0665 31.3536 45.2491C30.9943 45.4227 30.6136 45.6068 30.2116 45.8015C29.8163 45.9848 29.4107 46.1659 28.9948 46.345C28.588 46.5216 28.1968 46.6844 27.8213 46.8334C27.4457 46.9823 27.1037 47.1126 26.7954 47.2242L25.4921 46.2545C25.8503 46.1488 26.2568 46.0254 26.7118 45.8842C27.1733 45.7315 27.6472 45.5707 28.1334 45.4018C28.6262 45.2214 29.1042 45.0402 29.5675 44.8581C30.0398 44.6735 30.4761 44.4987 30.8763 44.3335C31.2741 44.1592 31.6043 44.0031 31.8669 43.8651C31.9744 43.7977 32.0517 43.8156 32.0987 43.919ZM33.8577 46.5348L32.8029 46.8175C32.733 46.7009 32.6495 46.5155 32.5524 46.2613C32.4553 46.0072 32.3567 45.7292 32.2565 45.4275C32.1539 45.1168 32.0595 44.8184 31.9732 44.5324C31.8869 44.2463 31.8196 44.0131 31.7712 43.8328L30.3617 38.5723C30.2395 38.4408 30.0632 38.3238 29.8328 38.2213C29.6115 38.1163 29.376 38.049 29.1265 38.0192L29.1672 37.414C29.1749 37.3347 29.2419 37.2781 29.3681 37.2443C29.6049 37.1905 29.8781 37.1462 30.1877 37.1116C30.4973 37.077 30.797 37.0595 31.0868 37.0591C31.3831 37.0474 31.6279 37.0591 31.8209 37.0943C31.9911 37.1164 32.0949 37.2335 32.1324 37.4457L32.3066 38.3121L33.5096 42.8017C33.6087 43.1714 33.6915 43.5888 33.7582 44.0541C33.8315 44.5079 33.8786 44.9542 33.8996 45.3931C33.9206 45.8319 33.9066 46.2125 33.8577 46.5348ZM25.4921 46.2545L26.7954 47.2242C26.6176 47.2815 26.4051 47.3722 26.1582 47.4964C25.9203 47.6181 25.7286 47.7323 25.5832 47.8389C25.2922 47.7623 24.9791 47.6577 24.6441 47.5252C24.318 47.3904 24.0281 47.2458 23.7742 47.0916C23.6942 47.0454 23.6625 46.9814 23.6793 46.8996L23.7321 46.6101C24.0057 46.5851 24.2981 46.5406 24.6094 46.4765C24.9274 46.4009 25.2216 46.3269 25.4921 46.2545ZM35.743 49.1893L29.9426 50.8015L30.3387 49.5214C30.501 49.4779 30.6903 49.4272 30.9067 49.3692C31.1231 49.3112 31.353 49.2496 31.5964 49.1844C31.8398 49.1192 32.082 49.0494 32.323 48.9752C32.5664 48.91 32.7951 48.8439 33.009 48.7769C33.2344 48.7165 33.427 48.66 33.5869 48.6075L34.0913 48.11C34.3323 48.0358 34.6052 47.9723 34.91 47.9197C35.2213 47.8556 35.4687 47.8231 35.652 47.8223C35.8396 47.801 35.9587 47.8851 36.0095 48.0744C36.0698 48.2998 36.0935 48.4963 36.0805 48.6641C36.0765 48.8294 36.0547 48.9464 36.0151 49.015C35.9689 49.095 35.8782 49.1531 35.743 49.1893ZM35.4405 42.1104L33.0146 42.8474L32.7102 41.7115L33.7739 41.354L34.1269 40.9405C34.3319 40.876 34.5585 40.8201 34.8067 40.7729C35.0616 40.7143 35.2557 40.6816 35.3892 40.6748C35.5996 40.6667 35.7392 40.7549 35.8079 40.9394C35.8719 41.1059 35.9063 41.2706 35.9113 41.4335C35.9163 41.5964 35.9015 41.7212 35.8667 41.8078C35.8385 41.883 35.7785 41.9474 35.6866 42.001C35.6036 42.0522 35.5216 42.0887 35.4405 42.1104ZM28.8108 45.4957L27.0798 45.9595L26.5218 43.8769L28.2527 43.4131L28.8108 45.4957ZM29.9599 41.1295C30.0951 41.6343 30.0668 42.1057 29.875 42.5436C29.6897 42.9701 29.388 43.3408 28.97 43.6558C28.5585 43.9593 28.0823 44.1835 27.5414 44.3284C27.0095 44.471 26.485 44.5149 25.9679 44.4602C25.4484 44.3965 24.9972 44.2275 24.6145 43.9532C24.2384 43.6674 23.9828 43.2722 23.8475 42.7673C23.7122 42.2624 23.7372 41.7968 23.9225 41.3703C24.1143 40.9324 24.4193 40.556 24.8374 40.241C25.2554 39.9261 25.7304 39.6974 26.2623 39.5548C26.8032 39.4099 27.3289 39.3705 27.8395 39.4366C28.359 39.5003 28.8068 39.675 29.1829 39.9608C29.5656 40.2351 29.8246 40.6246 29.9599 41.1295ZM28.1748 41.6078C28.0782 41.2472 27.8795 41.0105 27.5788 40.8979C27.2756 40.7762 26.9527 40.7612 26.6102 40.853C26.2676 40.9448 25.9954 41.1192 25.7937 41.3762C25.5896 41.6241 25.5359 41.9284 25.6325 42.289C25.7291 42.6496 25.929 42.8908 26.2322 43.0124C26.5329 43.1251 26.8546 43.1355 27.1972 43.0438C27.5397 42.952 27.8131 42.7821 28.0172 42.5341C28.2189 42.2772 28.2714 41.9684 28.1748 41.6078ZM30.3523 49.5177L29.9426 50.8015C29.4017 50.9465 28.9793 50.9389 28.6755 50.7787C28.3807 50.6161 28.1777 50.3275 28.0666 49.9128L27.9289 49.3989L29.8357 48.888L29.9371 49.2666C29.9975 49.492 30.1359 49.5757 30.3523 49.5177ZM29.8755 49.0367L27.9688 49.5477L27.7876 48.8715C27.6529 48.8013 27.4866 48.7396 27.2887 48.6863C27.0974 48.6216 26.9032 48.5819 26.706 48.5671L26.691 48.0783C26.6848 47.9833 26.7494 47.9177 26.8846 47.8815C27.101 47.8235 27.3558 47.7649 27.6491 47.7056C27.9425 47.6464 28.228 47.594 28.5057 47.5486C28.7924 47.5007 29.0217 47.4731 29.1937 47.4657C29.3861 47.4625 29.5088 47.56 29.562 47.7583L29.7415 48.5364L29.8755 49.0367ZM43.6038 35.1546L43.9191 36.3311C43.7748 36.3697 43.563 36.4265 43.2835 36.5014C43.013 36.5738 42.711 36.6548 42.3774 36.7442C42.0439 36.8335 41.7115 36.9274 41.3804 37.0258C41.0468 37.1152 40.7505 37.1994 40.4915 37.2785C40.2391 37.3461 40.06 37.3989 39.9542 37.4369C39.7853 37.4919 39.5795 37.5712 39.3367 37.6749C39.094 37.7786 38.884 37.8783 38.7067 37.9741C38.4246 37.8951 38.1423 37.7968 37.8595 37.6793C37.5834 37.5504 37.3299 37.4154 37.0988 37.2744C37.0188 37.2282 36.9872 37.1642 37.0039 37.0825L37.064 36.82C37.2991 36.7956 37.5735 36.7559 37.8872 36.7008C38.21 36.6433 38.4616 36.5904 38.6419 36.5421C38.7771 36.5059 39.0115 36.4431 39.3451 36.3537C39.6786 36.2643 40.0573 36.1629 40.481 36.0493C40.9113 35.9243 41.3383 35.8051 41.762 35.6916C42.1834 35.569 42.5608 35.463 42.8944 35.3737C43.2255 35.2753 43.462 35.2022 43.6038 35.1546ZM47.2937 43.1376L47.8532 42.6833C48.0539 42.6392 48.2764 42.6037 48.5204 42.577C48.7711 42.5388 49.0061 42.5145 49.2255 42.504C49.4516 42.4821 49.6292 42.478 49.7585 42.4916C49.9377 42.5113 50.0502 42.6067 50.0961 42.778C50.1493 42.9763 50.1435 43.1711 50.0788 43.3624C50.0231 43.5513 49.9517 43.6815 49.8646 43.7532C49.7516 43.7641 49.5767 43.7965 49.3399 43.8503C49.1121 43.9017 48.8765 43.96 48.6331 44.0252C48.3963 44.079 48.2012 44.1264 48.048 44.1675C47.8947 44.2085 47.6345 44.2831 47.2673 44.3911C46.9066 44.4878 46.4841 44.6058 45.9997 44.7453C45.5219 44.8733 45.0228 45.0119 44.5023 45.161C43.9794 45.3011 43.4803 45.4397 43.0049 45.5767C42.5295 45.7138 42.1127 45.8351 41.7545 45.9408C41.4053 46.044 41.1598 46.1194 41.018 46.1671C40.9032 46.2075 40.7424 46.2747 40.5357 46.3688C40.3356 46.4514 40.1379 46.543 39.9427 46.6436C39.745 46.7353 39.5833 46.8172 39.4578 46.8895C39.1469 46.8472 38.8149 46.7622 38.4619 46.6346C38.1178 46.5045 37.8155 46.3681 37.555 46.2253C37.475 46.1791 37.4422 46.1107 37.4565 46.0199L37.5229 45.7267C37.8235 45.6945 38.1441 45.6472 38.485 45.5848C38.8348 45.5201 39.1461 45.456 39.419 45.3925C39.5542 45.3563 39.7796 45.2959 40.0952 45.2114C40.4107 45.1268 40.7848 45.0266 41.2176 44.9106C41.6479 44.7857 42.111 44.6567 42.6068 44.5239C43.1002 44.382 43.5937 44.2401 44.0871 44.0983C44.5805 43.9564 45.0424 43.823 45.4727 43.698C45.912 43.5706 46.2928 43.4589 46.6149 43.3629C46.9346 43.258 47.1609 43.1828 47.2937 43.1376ZM47.1501 40.6541L40.5663 42.5342L41.0327 41.1917C41.2311 41.1386 41.47 41.0746 41.7495 40.9997C42.038 40.9224 42.3445 40.8403 42.669 40.7533C42.9912 40.6573 43.3145 40.5658 43.6391 40.4789C43.9612 40.3829 44.2608 40.293 44.5378 40.2091C44.8149 40.1252 45.0514 40.0521 45.2473 39.99L45.5743 39.6415C45.8062 39.5697 46.0701 39.5086 46.3658 39.4584C46.6682 39.3967 46.9065 39.3666 47.0809 39.3682C47.2823 39.3626 47.4059 39.4454 47.4518 39.6167C47.505 39.815 47.5238 39.9936 47.5084 40.1523C47.4905 40.302 47.4618 40.4112 47.4222 40.4798C47.376 40.5598 47.2853 40.6179 47.1501 40.6541ZM41.2085 41.1446L40.5663 42.5342C40.1221 42.6436 39.7686 42.6223 39.5057 42.4705C39.2404 42.3097 39.0534 42.0265 38.9446 41.6208L38.6367 40.4713L40.5434 39.9604L40.7934 40.8935C40.8538 41.1189 40.9922 41.2026 41.2085 41.1446ZM40.6738 40.4473L38.7671 40.9582L38.5751 40.2415C38.3392 40.0824 38.0343 39.9902 37.6603 39.9648L37.6291 39.5238C37.6302 39.4559 37.6758 39.4098 37.766 39.3857C37.9643 39.3325 38.227 39.267 38.554 39.1891C38.8785 39.1021 39.1998 39.0208 39.5177 38.9453C39.8447 38.8674 40.0917 38.8157 40.2588 38.7902L40.5216 39.8793L40.6738 40.4473ZM46.1218 38.2773L40.427 39.9047L40.1371 38.8228C40.3174 38.7745 40.5293 38.7177 40.7727 38.6525C41.0251 38.5849 41.2911 38.5136 41.5705 38.4387C41.8566 38.3524 42.1349 38.273 42.4053 38.2006C42.6734 38.1191 42.9189 38.0436 43.1419 37.9742C43.3648 37.9048 43.5427 37.8475 43.6755 37.8022L44.0324 37.6196C44.304 37.4792 44.584 37.3704 44.8725 37.2931C45.161 37.2158 45.3871 37.1939 45.5506 37.2273L45.98 37.3152C46.0708 37.3295 46.1295 37.3863 46.1561 37.4854C46.1947 37.6297 46.2063 37.7812 46.1909 37.9399C46.182 38.0872 46.159 38.1997 46.1218 38.2773ZM45.6372 35.7113L43.6585 36.3864L43.5903 35.1582L44.2039 34.6894C44.2844 34.6292 44.388 34.6014 44.5149 34.6061C44.6508 34.6083 44.8402 34.63 45.0831 34.6712C45.3237 34.7034 45.502 34.7378 45.618 34.7743C45.7137 34.8067 45.7513 34.8932 45.7311 35.0339L45.6372 35.7113ZM45.6156 37.2534L43.9928 37.6882C43.9867 37.5932 43.9607 37.4601 43.9148 37.2888C43.8779 37.1151 43.832 36.9438 43.7771 36.7749C43.7288 36.5946 43.6893 36.4651 43.6585 36.3864L45.6372 35.7113C45.6554 35.8513 45.6673 36.0221 45.673 36.2235C45.6762 36.4158 45.6737 36.6049 45.6655 36.7907C45.6573 36.9765 45.6407 37.1307 45.6156 37.2534ZM46.5977 42.5414L44.787 42.7077C44.6143 42.5318 44.3713 42.4181 44.058 42.3668L44.0944 41.9077C44.0997 41.8193 44.1712 41.7615 44.3088 41.7343C44.5005 41.6926 44.7242 41.6617 44.9797 41.6415C45.2417 41.61 45.4972 41.5898 45.7461 41.5811C45.9926 41.5634 46.1907 41.5634 46.3404 41.5813C46.5082 41.5943 46.5901 41.6835 46.586 41.8488L46.5977 42.5414ZM42.6717 43.7383L40.8178 43.9597C40.7354 43.9045 40.6259 43.8565 40.4894 43.8158C40.3619 43.7726 40.2302 43.75 40.0943 43.7477L40.0658 43.2626C40.0651 43.2241 40.0804 43.191 40.1116 43.1633C40.1429 43.1356 40.2036 43.1097 40.2937 43.0855C40.474 43.0372 40.6895 42.994 40.9402 42.9558C41.1974 42.9062 41.4481 42.868 41.6921 42.8413C41.9428 42.8031 42.1406 42.7839 42.2855 42.7838C42.4304 42.7836 42.518 42.8761 42.5482 43.0612L42.6717 43.7383ZM46.7799 44.0869L45.1301 44.529L44.787 42.7077L46.5977 42.5414L46.7799 44.0869ZM42.9925 45.0438L41.3021 45.4967L40.8178 43.9597L42.6717 43.7383L42.9925 45.0438Z" fill="#282828"/>
<circle cx="8.25" cy="41.25" r="1.25" fill="#282828"/>
<circle cx="61.25" cy="27.25" r="1.25" fill="#282828"/>
</g>
<defs>
<clipPath id="clip0_307_1198">
<rect width="70" height="70" fill="white"/>
</clipPath>
</defs>
</svg>
