<svg width="70" height="70" viewBox="0 0 70 70" fill="none" xmlns="http://www.w3.org/2000/svg">
<g clip-path="url(#clip0_310_1206)">
<rect width="70" height="70" fill="white"/>
<circle cx="35" cy="35" r="34.5" fill="#F3F0E9" stroke="#282828"/>
<path d="M21.0204 45.2192L20.908 44.8L22.4989 44.0839L24.5544 43.5331L26.1424 43.4554L26.2511 43.8611L21.0204 45.2192ZM22.5349 44.8134C22.2745 43.7333 22.0018 42.6614 21.7167 41.5976L20.126 35.661L18.5946 36.2743L18.4641 35.7874L21.8943 33.9842L22.1334 34.0651L22.6699 36.2838L23.9345 41.0033C24.0746 41.5262 24.2217 42.0569 24.3756 42.5954C24.5386 43.1315 24.6958 43.6643 24.8474 44.1938L22.5349 44.8134ZM32.1519 33.975C32.292 34.4979 32.28 34.9939 32.1158 35.4631C31.9517 35.9322 31.6609 36.3435 31.2434 36.6969C30.826 37.0503 30.3063 37.3104 29.6842 37.477C29.0712 37.6413 28.4956 37.6748 27.9574 37.5774C27.4192 37.48 26.9572 37.2705 26.5714 36.9487C26.1947 36.6245 25.9362 36.2009 25.7961 35.678C25.656 35.1552 25.6693 34.6637 25.8359 34.2035C26.009 33.732 26.3055 33.324 26.7254 32.9796C27.1428 32.6262 27.658 32.3673 28.2711 32.2031C28.8931 32.0364 29.4733 32.0017 30.0115 32.0991C30.5473 32.1874 31.0035 32.3937 31.3803 32.7179C31.7546 33.0331 32.0118 33.4521 32.1519 33.975ZM30.3263 34.4642C30.22 34.0675 30.0093 33.7858 29.694 33.619C29.3788 33.4523 29.0228 33.422 28.6262 33.5283C28.2295 33.6346 27.9364 33.8388 27.7467 34.1408C27.5571 34.4429 27.5154 34.7922 27.6217 35.1889C27.7256 35.5765 27.9352 35.8537 28.2504 36.0205C28.5632 36.1783 28.918 36.204 29.3146 36.0977C29.7113 35.9914 30.0057 35.7917 30.1977 35.4987C30.3873 35.1967 30.4302 34.8518 30.3263 34.4642ZM35.2029 37.0854L35.4928 38.1672C35.3666 38.201 35.1817 38.2505 34.9383 38.3158C34.7039 38.3786 34.438 38.4498 34.1405 38.5295C33.852 38.6068 33.5647 38.6886 33.2786 38.775C32.9992 38.8498 32.7479 38.922 32.525 38.9914C32.2996 39.0518 32.1385 39.0998 32.0418 39.1354C31.8729 39.1903 31.6671 39.2696 31.4243 39.3733C31.1906 39.4746 30.9851 39.5731 30.8078 39.6689C30.5396 39.6055 30.2686 39.5138 29.9949 39.3939C29.7212 39.274 29.4713 39.1526 29.2451 39.0296C29.1765 38.99 29.1461 38.9305 29.1538 38.8511L29.2175 38.6022C29.4436 38.5802 29.7135 38.5417 30.0272 38.4867C30.341 38.4316 30.5835 38.3811 30.7548 38.3352C30.89 38.299 31.1064 38.241 31.4039 38.1613C31.7014 38.0815 32.0395 37.991 32.4181 37.8895C32.7944 37.779 33.1718 37.6731 33.5504 37.5716C33.9267 37.4611 34.2635 37.366 34.561 37.2863C34.8561 37.1976 35.0701 37.1306 35.2029 37.0854ZM38.4984 41.8115L32.5321 43.4536L32.9616 42.1355C33.1239 42.092 33.3222 42.0389 33.5566 41.9761C33.8 41.9109 34.057 41.842 34.3274 41.7696C34.6069 41.6947 34.8864 41.6198 35.1658 41.5449C35.4453 41.47 35.7056 41.3954 35.9466 41.3212C36.199 41.2536 36.4096 41.1923 36.5785 41.1374L36.9668 40.8014C37.1898 40.732 37.4401 40.6746 37.7178 40.6292C38.0045 40.5814 38.2306 40.5594 38.3959 40.5635C38.5883 40.5602 38.7074 40.6442 38.7533 40.8155C38.8065 41.0139 38.8286 41.1867 38.8198 41.334C38.8109 41.4813 38.79 41.5835 38.757 41.6407C38.7198 41.7183 38.6336 41.7752 38.4984 41.8115ZM33.0563 42.1102L32.5321 43.4536C32.0609 43.5702 31.6963 43.5616 31.4382 43.4278C31.1891 43.2917 31.0151 43.0388 30.916 42.6691L30.7385 42.0065L32.6182 41.5029L32.7232 41.895C32.774 42.0843 32.885 42.1561 33.0563 42.1102ZM32.6435 41.5975L30.7638 42.1012L30.6116 41.5332C30.4949 41.4582 30.3581 41.3982 30.2011 41.3533C30.0441 41.3084 29.8761 41.2762 29.6969 41.2565L29.6594 40.8463C29.6605 40.7783 29.7062 40.7323 29.7963 40.7081C29.9947 40.655 30.2528 40.5906 30.5707 40.5151C30.8953 40.4281 31.2178 40.3514 31.5381 40.2849C31.8561 40.2094 32.1031 40.1577 32.2792 40.1298L32.5239 41.1513L32.6435 41.5975ZM36.9909 37.5918L35.1547 38.2578L35.1894 37.089L35.7056 36.6898C35.7747 36.6229 35.8694 36.5976 35.9896 36.6137C36.1165 36.6183 36.2854 36.6359 36.4965 36.6663C36.7166 36.6943 36.8777 36.7187 36.98 36.7396C37.0666 36.7744 37.1031 36.8564 37.0894 36.9857L36.9909 37.5918ZM37.0113 38.8039L35.3885 39.2387C35.3897 39.1707 35.3733 39.0737 35.3395 38.9474C35.3123 38.8098 35.2806 38.6734 35.2443 38.5381C35.2081 38.4029 35.177 38.3049 35.1511 38.2443L36.9873 37.5783C37.0073 37.6889 37.0197 37.8257 37.0248 37.9886C37.0364 38.1401 37.0422 38.2883 37.0424 38.4332C37.0426 38.5781 37.0322 38.7016 37.0113 38.8039ZM37.4724 39.7674L32.4563 41.1694L32.1846 40.1552C32.3198 40.1189 32.4866 40.0742 32.6849 40.0211C32.8923 39.9655 33.1131 39.9063 33.3475 39.8435C33.5795 39.7717 33.8082 39.7056 34.0336 39.6452C34.268 39.5824 34.4799 39.5256 34.6692 39.4749C34.8561 39.4152 35.0024 39.3663 35.1082 39.3283L35.5525 39.0933C35.8511 38.9456 36.1041 38.844 36.3115 38.7885C36.5188 38.7329 36.6953 38.7243 36.8408 38.7626L37.2972 38.8432C37.3995 38.8641 37.4626 38.9197 37.4868 39.0098C37.5255 39.1541 37.5404 39.2998 37.5315 39.4471C37.5203 39.5854 37.5005 39.6922 37.4724 39.7674ZM36.1451 36.1662L35.0497 36.4597C34.9684 36.3365 34.8735 36.1445 34.765 35.8837C34.6655 35.6205 34.5692 35.3516 34.4763 35.077C34.3834 34.8023 34.3152 34.5839 34.2717 34.4216L33.3659 31.0408C33.2437 30.9093 33.0674 30.7923 32.837 30.6898C32.6156 30.5848 32.3802 30.5175 32.1306 30.4877L32.1714 29.8825C32.1791 29.8032 32.2461 29.7466 32.3723 29.7128C32.6091 29.659 32.8823 29.6147 33.1919 29.5801C33.5015 29.5455 33.8011 29.528 34.0909 29.5276C34.3873 29.5159 34.632 29.5276 34.825 29.5628C34.9952 29.5849 35.0991 29.702 35.1366 29.9142L35.3108 30.7806L36.0427 33.5122C36.1031 33.7376 36.1497 34.0198 36.1826 34.3589C36.2155 34.6979 36.2279 35.0328 36.2199 35.3635C36.2209 35.6917 36.196 35.9593 36.1451 36.1662ZM50.8366 32.0992L48.4106 32.8361L48.1063 31.7002L49.17 31.3427L49.523 30.9293C49.728 30.8647 49.9545 30.8088 50.2028 30.7616C50.4576 30.703 50.6518 30.6703 50.7852 30.6635C50.9957 30.6555 51.1352 30.7437 51.204 30.9282C51.2679 31.0946 51.3024 31.2593 51.3074 31.4222C51.3124 31.5852 51.2975 31.7099 51.2628 31.7965C51.2346 31.8717 51.1746 31.9361 51.0826 31.9897C50.9997 32.0409 50.9177 32.0774 50.8366 32.0992ZM49.9115 39.0867L48.8703 39.3657C48.8118 39.2557 48.7304 39.0601 48.6261 38.7789C48.5242 38.5067 48.4138 38.2029 48.2949 37.8675C48.1827 37.5208 48.081 37.1953 47.9898 36.8912C47.8963 36.5781 47.8278 36.3404 47.7843 36.1781L45.5377 27.7939C45.4041 27.6558 45.2176 27.5367 44.9782 27.4365C44.7478 27.334 44.5021 27.2646 44.2411 27.2282L44.2855 26.6366C44.2939 26.5957 44.3092 26.5626 44.3314 26.5373C44.3536 26.512 44.4008 26.4897 44.4729 26.4704C44.7187 26.4142 44.9964 26.3688 45.306 26.3341C45.6246 26.2971 45.9378 26.276 46.2456 26.2708C46.551 26.2566 46.8003 26.2671 46.9933 26.3024C47.1725 26.322 47.2808 26.4379 47.3184 26.6501L47.4863 27.5472L49.5154 35.12C49.5782 35.3544 49.6408 35.642 49.7031 35.9829C49.763 36.3147 49.8143 36.6681 49.8568 37.0432C49.8993 37.4183 49.9247 37.7835 49.933 38.1388C49.9526 38.5007 49.9455 38.8167 49.9115 39.0867ZM42.9198 30.8434L43.2024 31.8982C43.0672 31.9344 42.8914 31.9815 42.675 32.0395C42.4677 32.095 42.2468 32.1542 42.0124 32.217C41.787 32.2774 41.5809 32.3375 41.394 32.3972C41.2046 32.448 41.0661 32.4899 40.9784 32.5231C40.8365 32.5708 40.6635 32.6461 40.4592 32.7492C40.2615 32.8408 40.0978 32.933 39.968 33.0257C39.7022 32.9713 39.4361 32.8977 39.1697 32.8048C38.9008 32.7029 38.659 32.5938 38.4442 32.4774C38.3732 32.4288 38.3416 32.3648 38.3493 32.2855L38.4094 32.023C38.6535 31.9962 38.9086 31.9568 39.1749 31.9048C39.4388 31.8438 39.6699 31.7867 39.8682 31.7335C39.9674 31.707 40.1161 31.6671 40.3145 31.614C40.5218 31.5584 40.7517 31.4968 41.0041 31.4292C41.2541 31.3525 41.5041 31.2758 41.7542 31.1992C42.0042 31.1225 42.2329 31.0564 42.4402 31.0009C42.6451 30.9363 42.805 30.8838 42.9198 30.8434ZM44.9189 31.3803L42.6038 32.0441L42.9198 30.8434L43.4901 30.4297C43.5862 30.3556 43.7034 30.3242 43.8417 30.3355C44.0005 30.3509 44.2058 30.378 44.4578 30.4168C44.7163 30.4441 44.9037 30.4761 45.0197 30.5126C45.1244 30.5425 45.1608 30.6246 45.1291 30.7587L44.9189 31.3803ZM39.9144 38.7217L39.5887 38.5336C39.5086 38.4874 39.4893 38.4153 39.5307 38.3172C40.0698 37.6606 40.5439 36.978 40.9531 36.2693C41.3689 35.5491 41.7122 34.8291 41.9831 34.1091C42.263 33.3867 42.4699 32.6984 42.6038 32.0441L43.6752 31.3367L44.9189 31.3803C44.7293 32.2234 44.412 33.0766 43.9669 33.9399C43.5308 34.8007 42.9901 35.6317 42.3448 36.4326C41.6995 37.2336 40.9738 37.9692 40.1677 38.6393C40.065 38.7248 39.9806 38.7523 39.9144 38.7217ZM39.1008 29.5187L39.1889 29.3066C39.8244 29.262 40.4501 29.1813 41.0662 29.0645C41.6799 28.9387 42.1929 28.8158 42.6052 28.6956C42.7765 28.6497 42.9025 28.6691 42.9831 28.7538C43.059 28.8204 43.1207 28.9247 43.1684 29.0665C43.2136 29.1993 43.2396 29.3325 43.2464 29.4659C43.2532 29.5994 43.229 29.7073 43.1737 29.7898C43.1251 29.8608 43.0332 29.9144 42.898 29.9506C42.7267 29.9965 42.5115 30.059 42.2525 30.1381C41.9911 30.2081 41.732 30.2872 41.4754 30.3753C41.2254 30.4519 41.0127 30.5234 40.8372 30.5898C40.7404 30.6253 40.6593 30.6471 40.5938 30.655C40.5282 30.6629 40.4624 30.6515 40.3962 30.6209C40.2206 30.5424 40.0136 30.4191 39.7753 30.251C39.5371 30.083 39.3315 29.911 39.1588 29.735C39.101 29.6636 39.0816 29.5914 39.1008 29.5187ZM45.7331 36.5828L42.6096 34.608L45.0471 34.5635L45.7885 34.6258C45.9516 34.7657 46.1301 34.9449 46.3239 35.1635C46.5178 35.3821 46.6668 35.5596 46.771 35.696C46.9426 35.9399 47.015 36.1379 46.9881 36.29C46.9612 36.4422 46.8706 36.5727 46.7162 36.6817C46.5594 36.7817 46.4062 36.8228 46.2564 36.8049C46.1861 36.7948 46.1019 36.769 46.0038 36.7277C45.9034 36.6773 45.8131 36.629 45.7331 36.5828ZM45.0471 34.5635L44.9481 34.735L42.6096 34.608L43.1412 33.5089L45.0471 34.5635Z" fill="#7D7D7D"/>
</g>
<defs>
<clipPath id="clip0_310_1206">
<rect width="70" height="70" fill="white"/>
</clipPath>
</defs>
</svg>
