<svg width="70" height="70" viewBox="0 0 70 70" fill="none" xmlns="http://www.w3.org/2000/svg">
<g clip-path="url(#clip0_310_1225)">
<rect width="70" height="70" fill="white"/>
<circle cx="35" cy="35" r="34.5" fill="#F3F0E9" stroke="#282828"/>
<path d="M23.9186 44.66L23.1287 41.712L23.0526 41.4281L21.4365 35.3968L21.1931 35.462L21.6338 35.2135L20.6041 38.4027L19.4226 42.0528L19.4119 41.418L19.4808 41.6749L26.2828 39.8523L26.6597 41.2587L19.195 43.2589L18.8906 42.1229L21.5296 34.0674L23.0442 33.6616L25.8524 44.1419L23.9186 44.66ZM33.1623 33.7043C33.3024 34.2272 33.2904 34.7232 33.1262 35.1923C32.962 35.6615 32.6712 36.0728 32.2538 36.4262C31.8364 36.7796 31.3166 37.0396 30.6946 37.2063C30.0816 37.3706 29.5059 37.404 28.9677 37.3067C28.4295 37.2093 27.9675 36.9997 27.5818 36.678C27.205 36.3538 26.9466 35.9302 26.8065 35.4073C26.6664 34.8844 26.6796 34.3929 26.8462 33.9328C27.0194 33.4612 27.3159 33.0533 27.7357 32.7089C28.1532 32.3555 28.6684 32.0966 29.2814 31.9324C29.9035 31.7657 30.4836 31.731 31.0218 31.8284C31.5576 31.9167 32.0139 32.123 32.3906 32.4472C32.765 32.7624 33.0222 33.1814 33.1623 33.7043ZM31.3367 34.1935C31.2304 33.7968 31.0196 33.5151 30.7044 33.3483C30.3892 33.1815 30.0332 33.1513 29.6365 33.2576C29.2399 33.3639 28.9467 33.5681 28.7571 33.8701C28.5675 34.1721 28.5258 34.5215 28.6321 34.9182C28.736 35.3058 28.9455 35.583 29.2608 35.7498C29.5736 35.9075 29.9283 35.9333 30.325 35.827C30.7217 35.7207 31.016 35.521 31.2081 35.228C31.3977 34.926 31.4406 34.5811 31.3367 34.1935ZM36.2133 36.8146L36.5031 37.8965C36.3769 37.9303 36.1921 37.9798 35.9487 38.045C35.7143 38.1078 35.4483 38.1791 35.1508 38.2588C34.8624 38.3361 34.5751 38.4179 34.289 38.5042C34.0095 38.5791 33.7583 38.6513 33.5353 38.7207C33.31 38.7811 33.1489 38.829 33.0521 38.8646C32.8833 38.9195 32.6774 38.9989 32.4347 39.1026C32.2009 39.2038 31.9954 39.3024 31.8182 39.3982C31.55 39.3348 31.279 39.2431 31.0053 39.1232C30.7316 39.0033 30.4817 38.8818 30.2555 38.7589C30.1869 38.7193 30.1564 38.6598 30.1642 38.5804L30.2279 38.3314C30.4539 38.3095 30.7238 38.271 31.0376 38.2159C31.3514 38.1608 31.5939 38.1104 31.7652 38.0645C31.9004 38.0282 32.1168 37.9702 32.4143 37.8905C32.7118 37.8108 33.0499 37.7202 33.4285 37.6188C33.8047 37.5083 34.1822 37.4023 34.5608 37.3009C34.937 37.1904 35.2739 37.0953 35.5714 37.0156C35.8665 36.9269 36.0804 36.8599 36.2133 36.8146ZM39.5088 41.5407L33.5425 43.1829L33.972 41.8648C34.1342 41.8213 34.3326 41.7682 34.567 41.7054C34.8104 41.6401 35.0673 41.5713 35.3378 41.4988C35.6173 41.4239 35.8967 41.3491 36.1762 41.2742C36.4557 41.1993 36.7159 41.1247 36.9569 41.0505C37.2094 40.9828 37.42 40.9216 37.5889 40.8667L37.9772 40.5307C38.2001 40.4613 38.4505 40.4039 38.7282 40.3585C39.0149 40.3106 39.2409 40.2887 39.4063 40.2927C39.5986 40.2895 39.7178 40.3735 39.7637 40.5448C39.8168 40.7431 39.839 40.916 39.8301 41.0633C39.8213 41.2106 39.8004 41.3128 39.7674 41.37C39.7302 41.4476 39.644 41.5045 39.5088 41.5407ZM34.0666 41.8394L33.5425 43.1829C33.0713 43.2995 32.7066 43.2909 32.4485 43.1571C32.1995 43.0209 32.0254 42.768 31.9264 42.3984L31.7488 41.7358L33.6285 41.2321L33.7336 41.6243C33.7843 41.8136 33.8953 41.8853 34.0666 41.8394ZM33.6539 41.3268L31.7742 41.8304L31.622 41.2625C31.5053 41.1875 31.3684 41.1275 31.2115 41.0826C31.0545 41.0377 30.8864 41.0054 30.7072 40.9858L30.6698 40.5755C30.6709 40.5076 30.7165 40.4615 30.8067 40.4374C31.005 40.3842 31.2632 40.3199 31.5811 40.2444C31.9057 40.1574 32.2281 40.0807 32.5485 40.0142C32.8664 39.9386 33.1135 39.8869 33.2896 39.8591L33.5343 40.8805L33.6539 41.3268ZM38.0013 37.3211L36.1651 37.987L36.1997 36.8182L36.716 36.419C36.7851 36.3522 36.8797 36.3268 37 36.3429C37.1268 36.3476 37.2958 36.3651 37.5069 36.3955C37.727 36.4235 37.8881 36.448 37.9903 36.4689C38.077 36.5037 38.1134 36.5857 38.0998 36.715L38.0013 37.3211ZM38.0217 38.5331L36.3989 38.9679C36.4 38.9 36.3837 38.8029 36.3499 38.6767C36.3226 38.5391 36.2909 38.4026 36.2547 38.2674C36.2184 38.1322 36.1874 38.0342 36.1614 37.9735L37.9977 37.3076C38.0176 37.4182 38.0301 37.5549 38.0351 37.7179C38.0467 37.8694 38.0526 38.0176 38.0528 38.1624C38.053 38.3073 38.0426 38.4309 38.0217 38.5331ZM38.4827 39.4966L33.4667 40.8986L33.1949 39.8844C33.3302 39.8482 33.497 39.8035 33.6953 39.7504C33.9026 39.6948 34.1235 39.6356 34.3579 39.5728C34.5899 39.501 34.8186 39.4349 35.044 39.3745C35.2784 39.3117 35.4902 39.2549 35.6795 39.2042C35.8664 39.1444 36.0128 39.0956 36.1186 39.0576L36.5629 38.8226C36.8615 38.6749 37.1145 38.5733 37.3218 38.5177C37.5292 38.4622 37.7056 38.4535 37.8512 38.4919L38.3076 38.5725C38.4098 38.5934 38.473 38.6489 38.4972 38.7391C38.5358 38.8833 38.5507 39.0291 38.5419 39.1764C38.5306 39.3147 38.5109 39.4214 38.4827 39.4966ZM37.1555 35.8954L36.0601 36.1889C35.9788 36.0658 35.8839 35.8738 35.7753 35.613C35.6758 35.3498 35.5796 35.0809 35.4867 34.8062C35.3938 34.5316 35.3256 34.3131 35.2821 34.1509L34.3762 30.7701C34.254 30.6386 34.0777 30.5216 33.8473 30.419C33.626 30.3141 33.3905 30.2467 33.141 30.217L33.1817 29.6118C33.1895 29.5324 33.2564 29.4758 33.3826 29.442C33.6195 29.3882 33.8927 29.344 34.2022 29.3094C34.5118 29.2747 34.8115 29.2572 35.1013 29.2569C35.3977 29.2451 35.6424 29.2569 35.8354 29.2921C36.0056 29.3141 36.1094 29.4312 36.147 29.6434L36.3211 30.5099L37.0531 33.2415C37.1135 33.4669 37.1601 33.7491 37.193 34.0882C37.2259 34.4272 37.2383 34.7621 37.2303 35.0927C37.2313 35.421 37.2063 35.6886 37.1555 35.8954ZM51.8469 31.8284L49.421 32.5654L49.1166 31.4295L50.1804 31.072L50.5334 30.6585C50.7383 30.594 50.9649 30.5381 51.2132 30.4909C51.468 30.4323 51.6622 30.3996 51.7956 30.3928C52.006 30.3847 52.1456 30.4729 52.2144 30.6574C52.2783 30.8239 52.3128 30.9886 52.3178 31.1515C52.3228 31.3144 52.3079 31.4392 52.2731 31.5258C52.245 31.601 52.1849 31.6654 52.093 31.719C52.0101 31.7702 51.9281 31.8067 51.8469 31.8284ZM50.9219 38.8159L49.8806 39.0949C49.8222 38.985 49.7408 38.7894 49.6364 38.5082C49.5345 38.2359 49.4241 37.9321 49.3053 37.5968C49.1931 37.25 49.0914 36.9246 49.0002 36.6205C48.9066 36.3074 48.8381 36.0697 48.7946 35.9074L46.5481 27.5232C46.4145 27.3851 46.2279 27.2659 45.9885 27.1658C45.7582 27.0633 45.5125 26.9938 45.2515 26.9575L45.2959 26.3658C45.3043 26.3249 45.3195 26.2919 45.3418 26.2666C45.364 26.2413 45.4111 26.219 45.4833 26.1997C45.7291 26.1435 46.0068 26.098 46.3164 26.0634C46.635 26.0263 46.9482 26.0052 47.256 26.0001C47.5614 25.9859 47.8106 25.9964 48.0036 26.0316C48.1828 26.0513 48.2912 26.1672 48.3287 26.3793L48.4966 27.2764L50.5258 34.8493C50.5886 35.0837 50.6511 35.3713 50.7135 35.7121C50.7734 36.0439 50.8246 36.3974 50.8672 36.7725C50.9097 37.1476 50.9351 37.5128 50.9433 37.8681C50.963 38.23 50.9559 38.546 50.9219 38.8159ZM43.9302 30.5727L44.2128 31.6274C44.0776 31.6637 43.9018 31.7108 43.6854 31.7688C43.478 31.8243 43.2572 31.8835 43.0228 31.9463C42.7974 32.0067 42.5912 32.0668 42.4043 32.1265C42.215 32.1772 42.0765 32.2192 41.9887 32.2524C41.8469 32.3 41.6739 32.3754 41.4696 32.4784C41.2719 32.5701 41.1082 32.6622 40.9784 32.755C40.7126 32.7006 40.4465 32.627 40.18 32.5341C39.9112 32.4322 39.6693 32.3231 39.4546 32.2067C39.3836 32.1581 39.3519 32.0941 39.3597 32.0147L39.4198 31.7522C39.6638 31.7255 39.919 31.6861 40.1853 31.6341C40.4491 31.573 40.6802 31.5159 40.8786 31.4628C40.9777 31.4362 41.1265 31.3964 41.3248 31.3432C41.5322 31.2877 41.7621 31.2261 42.0145 31.1584C42.2645 31.0818 42.5145 31.0051 42.7645 30.9285C43.0145 30.8518 43.2432 30.7857 43.4506 30.7301C43.6555 30.6656 43.8154 30.6131 43.9302 30.5727ZM45.9292 31.1096L43.6141 31.7734L43.9302 30.5727L44.5005 30.1589C44.5966 30.0849 44.7138 30.0535 44.8521 30.0647C45.0108 30.0802 45.2162 30.1073 45.4681 30.1461C45.7267 30.1734 45.914 30.2053 46.0301 30.2419C46.1347 30.2718 46.1712 30.3538 46.1395 30.4879L45.9292 31.1096ZM40.9248 38.4509L40.599 38.2629C40.519 38.2167 40.4997 38.1445 40.541 38.0465C41.0801 37.3899 41.5543 36.7073 41.9635 35.9986C42.3792 35.2784 42.7226 34.5583 42.9935 33.8384C43.2734 33.116 43.4803 32.4276 43.6141 31.7734L44.6856 31.0659L45.9292 31.1096C45.7397 31.9527 45.4223 32.8059 44.9773 33.6692C44.5412 34.53 44.0005 35.3609 43.3552 36.1619C42.7098 36.9629 41.9841 37.6985 41.1781 38.3686C41.0754 38.4541 40.991 38.4815 40.9248 38.4509ZM40.1112 29.2479L40.1993 29.0359C40.8347 28.9913 41.4605 28.9106 42.0766 28.7938C42.6903 28.668 43.2033 28.545 43.6156 28.4249C43.7868 28.379 43.9128 28.3984 43.9935 28.4831C44.0693 28.5497 44.1311 28.6539 44.1787 28.7958C44.224 28.9286 44.25 29.0617 44.2568 29.1952C44.2635 29.3286 44.2393 29.4366 44.1841 29.519C44.1355 29.59 44.0436 29.6436 43.9083 29.6799C43.7371 29.7258 43.5219 29.7883 43.2629 29.8673C43.0014 29.9374 42.7424 30.0165 42.4858 30.1045C42.2358 30.1812 42.023 30.2527 41.8475 30.319C41.7508 30.3546 41.6697 30.3764 41.6041 30.3843C41.5386 30.3921 41.4728 30.3808 41.4066 30.3502C41.2309 30.2717 41.024 30.1484 40.7857 29.9803C40.5474 29.8123 40.3419 29.6403 40.1691 29.4643C40.1113 29.3928 40.092 29.3207 40.1112 29.2479ZM46.7435 36.3121L43.6199 34.3372L46.0575 34.2928L46.7989 34.3551C46.962 34.4949 47.1404 34.6742 47.3343 34.8928C47.5281 35.1114 47.6771 35.2889 47.7813 35.4252C47.953 35.6691 48.0253 35.8671 47.9985 36.0193C47.9716 36.1714 47.881 36.302 47.7266 36.411C47.5698 36.511 47.4165 36.5521 47.2668 36.5342C47.1965 36.5241 47.1123 36.4983 47.0142 36.4569C46.9137 36.4066 46.8235 36.3583 46.7435 36.3121ZM46.0575 34.2928L45.9585 34.4643L43.6199 34.3372L44.1516 33.2382L46.0575 34.2928Z" fill="#7D7D7D"/>
</g>
<defs>
<clipPath id="clip0_310_1225">
<rect width="70" height="70" fill="white"/>
</clipPath>
</defs>
</svg>
