<svg width="70" height="70" viewBox="0 0 70 70" fill="none" xmlns="http://www.w3.org/2000/svg">
<g clip-path="url(#clip0_310_1237)">
<rect width="70" height="70" fill="white"/>
<circle cx="35" cy="35" r="34.5" fill="#F3F0E9" stroke="#282828"/>
<path d="M21.3619 45.1277L21.1904 45.0287L23.715 34.8153L23.7206 35.7559L23.6482 35.4854L17.9415 37.0145L17.4922 35.3377L23.9697 33.602L24.2487 34.6433L23.1604 44.6458L21.3619 45.1277ZM33.1359 33.7114C33.276 34.2343 33.264 34.7303 33.0998 35.1994C32.9356 35.6686 32.6448 36.0798 32.2274 36.4332C31.81 36.7867 31.2902 37.0467 30.6682 37.2134C30.0551 37.3776 29.4795 37.4111 28.9413 37.3137C28.4031 37.2164 27.9411 37.0068 27.5554 36.685C27.1786 36.3608 26.9202 35.9373 26.7801 35.4144C26.64 34.8915 26.6532 34.4 26.8198 33.9399C26.993 33.4683 27.2895 33.0603 27.7093 32.7159C28.1268 32.3625 28.642 32.1037 29.255 31.9394C29.8771 31.7727 30.4572 31.7381 30.9954 31.8354C31.5312 31.9238 31.9875 32.13 32.3642 32.4543C32.7386 32.7694 32.9958 33.1885 33.1359 33.7114ZM31.3103 34.2005C31.204 33.8039 30.9932 33.5221 30.678 33.3554C30.3628 33.1886 30.0068 33.1584 29.6101 33.2647C29.2135 33.371 28.9203 33.5751 28.7307 33.8772C28.5411 34.1792 28.4994 34.5286 28.6057 34.9252C28.7096 35.3129 28.9191 35.5901 29.2343 35.7569C29.5472 35.9146 29.9019 35.9403 30.2986 35.834C30.6953 35.7278 30.9896 35.5281 31.1817 35.2351C31.3713 34.933 31.4142 34.5882 31.3103 34.2005ZM36.1869 36.8217L36.4767 37.9035C36.3505 37.9374 36.1657 37.9869 35.9223 38.0521C35.6879 38.1149 35.4219 38.1862 35.1244 38.2659C34.8359 38.3432 34.5487 38.425 34.2626 38.5113C33.9831 38.5862 33.7319 38.6583 33.5089 38.7277C33.2835 38.7881 33.1225 38.8361 33.0257 38.8717C32.8568 38.9266 32.651 39.0059 32.4083 39.1096C32.1745 39.2109 31.969 39.3095 31.7918 39.4053C31.5236 39.3419 31.2526 39.2502 30.9789 39.1303C30.7052 39.0104 30.4553 38.8889 30.2291 38.7659C30.1605 38.7263 30.13 38.6669 30.1378 38.5875L30.2015 38.3385C30.4275 38.3166 30.6974 38.2781 31.0112 38.223C31.3249 38.1679 31.5675 38.1174 31.7388 38.0715C31.874 38.0353 32.0904 37.9773 32.3879 37.8976C32.6854 37.8179 33.0234 37.7273 33.4021 37.6258C33.7783 37.5154 34.1558 37.4094 34.5344 37.308C34.9106 37.1975 35.2475 37.1024 35.545 37.0227C35.8401 36.9339 36.054 36.867 36.1869 36.8217ZM39.4823 41.5478L33.5161 43.1899L33.9456 41.8719C34.1078 41.8284 34.3062 41.7752 34.5406 41.7124C34.784 41.6472 35.0409 41.5784 35.3114 41.5059C35.5909 41.431 35.8703 41.3561 36.1498 41.2812C36.4293 41.2064 36.6895 41.1318 36.9305 41.0576C37.1829 40.9899 37.3936 40.9286 37.5625 40.8737L37.9507 40.5378C38.1737 40.4684 38.4241 40.411 38.7018 40.3655C38.9885 40.3177 39.2145 40.2958 39.3798 40.2998C39.5722 40.2966 39.6914 40.3806 39.7373 40.5519C39.7904 40.7502 39.8126 40.923 39.8037 41.0704C39.7949 41.2177 39.774 41.3199 39.741 41.377C39.7038 41.4546 39.6176 41.5116 39.4823 41.5478ZM34.0402 41.8465L33.5161 43.1899C33.0449 43.3065 32.6802 43.298 32.4221 43.1642C32.1731 43.028 31.999 42.7751 31.9 42.4055L31.7224 41.7429L33.6021 41.2392L33.7072 41.6314C33.7579 41.8207 33.8689 41.8924 34.0402 41.8465ZM33.6275 41.3339L31.7478 41.8375L31.5956 41.2696C31.4789 41.1945 31.342 41.1346 31.1851 41.0897C31.0281 41.0448 30.86 41.0125 30.6808 40.9929L30.6434 40.5826C30.6445 40.5147 30.6901 40.4686 30.7803 40.4445C30.9786 40.3913 31.2367 40.327 31.5547 40.2515C31.8793 40.1645 32.2017 40.0878 32.5221 40.0212C32.84 39.9457 33.0871 39.894 33.2632 39.8661L33.5079 40.8876L33.6275 41.3339ZM37.9749 37.3282L36.1387 37.9941L36.1733 36.8253L36.6896 36.4261C36.7587 36.3593 36.8533 36.3339 36.9736 36.35C37.1004 36.3547 37.2694 36.3722 37.4805 36.4026C37.7005 36.4306 37.8617 36.4551 37.9639 36.476C38.0505 36.5107 38.087 36.5928 38.0733 36.722L37.9749 37.3282ZM37.9953 38.5402L36.3725 38.975C36.3736 38.9071 36.3573 38.81 36.3235 38.6838C36.2962 38.5461 36.2645 38.4097 36.2283 38.2745C36.192 38.1393 36.161 38.0413 36.135 37.9806L37.9712 37.3147C37.9912 37.4253 38.0037 37.562 38.0087 37.7249C38.0203 37.8764 38.0262 38.0246 38.0264 38.1695C38.0265 38.3144 38.0162 38.438 37.9953 38.5402ZM38.4563 39.5037L33.4403 40.9057L33.1685 39.8915C33.3038 39.8553 33.4705 39.8106 33.6689 39.7574C33.8762 39.7019 34.0971 39.6427 34.3315 39.5799C34.5635 39.5081 34.7922 39.442 35.0175 39.3816C35.2519 39.3188 35.4638 39.262 35.6531 39.2113C35.84 39.1515 35.9864 39.1026 36.0921 39.0646L36.5365 38.8296C36.8351 38.682 37.0881 38.5804 37.2954 38.5248C37.5028 38.4693 37.6792 38.4606 37.8248 38.4989L38.2812 38.5795C38.3834 38.6005 38.4466 38.656 38.4708 38.7462C38.5094 38.8904 38.5243 39.0362 38.5155 39.1835C38.5042 39.3218 38.4845 39.4285 38.4563 39.5037ZM37.1291 35.9025L36.0337 36.196C35.9524 36.0729 35.8575 35.8809 35.7489 35.6201C35.6494 35.3569 35.5532 35.088 35.4603 34.8133C35.3674 34.5387 35.2992 34.3202 35.2557 34.1579L34.3498 30.7772C34.2276 30.6457 34.0513 30.5287 33.8209 30.4261C33.5996 30.3212 33.3641 30.2538 33.1146 30.2241L33.1553 29.6189C33.163 29.5395 33.23 29.4829 33.3562 29.4491C33.593 29.3953 33.8662 29.3511 34.1758 29.3165C34.4854 29.2818 34.7851 29.2643 35.0749 29.264C35.3713 29.2522 35.616 29.2639 35.809 29.2992C35.9792 29.3212 36.083 29.4383 36.1206 29.6505L36.2947 30.5169L37.0267 33.2486C37.0871 33.474 37.1337 33.7562 37.1666 34.0952C37.1994 34.4343 37.2119 34.7691 37.2038 35.0998C37.2048 35.4281 37.1799 35.6956 37.1291 35.9025ZM51.8205 31.8355L49.3946 32.5725L49.0902 31.4366L50.154 31.0791L50.507 30.6656C50.7119 30.601 50.9385 30.5452 51.1867 30.498C51.4416 30.4393 51.6357 30.4066 51.7692 30.3999C51.9796 30.3918 52.1192 30.48 52.188 30.6645C52.2519 30.831 52.2864 30.9957 52.2914 31.1586C52.2964 31.3215 52.2815 31.4463 52.2467 31.5329C52.2185 31.6081 52.1585 31.6725 52.0666 31.7261C51.9837 31.7773 51.9017 31.8138 51.8205 31.8355ZM50.8955 38.823L49.8542 39.102C49.7958 38.9921 49.7144 38.7965 49.61 38.5152C49.5081 38.243 49.3977 37.9392 49.2789 37.6039C49.1666 37.2571 49.0649 36.9317 48.9738 36.6276C48.8802 36.3145 48.8117 36.0768 48.7682 35.9145L46.5217 27.5303C46.388 27.3921 46.2015 27.273 45.9621 27.1729C45.7317 27.0704 45.4861 27.0009 45.2251 26.9646L45.2695 26.3729C45.2778 26.332 45.2931 26.2989 45.3153 26.2737C45.3376 26.2484 45.3847 26.2261 45.4569 26.2068C45.7027 26.1505 45.9804 26.1051 46.29 26.0705C46.6086 26.0334 46.9218 26.0123 47.2296 26.0071C47.535 25.9929 47.7842 26.0035 47.9772 26.0387C48.1564 26.0583 48.2648 26.1742 48.3023 26.3864L48.4702 27.2835L50.4994 34.8564C50.5622 35.0908 50.6247 35.3784 50.6871 35.7192C50.747 36.051 50.7982 36.4045 50.8407 36.7796C50.8833 37.1547 50.9087 37.5199 50.9169 37.8752C50.9366 38.2371 50.9294 38.553 50.8955 38.823ZM43.9037 30.5797L44.1864 31.6345C44.0511 31.6708 43.8753 31.7179 43.659 31.7758C43.4516 31.8314 43.2307 31.8906 42.9964 31.9534C42.771 32.0138 42.5648 32.0738 42.3779 32.1336C42.1886 32.1843 42.0501 32.2263 41.9623 32.2594C41.8205 32.3071 41.6474 32.3825 41.4432 32.4855C41.2455 32.5771 41.0817 32.6693 40.952 32.7621C40.6862 32.7077 40.4201 32.634 40.1536 32.5412C39.8848 32.4393 39.6429 32.3302 39.4282 32.2138C39.3572 32.1652 39.3255 32.1012 39.3332 32.0218L39.3933 31.7593C39.6374 31.7326 39.8926 31.6932 40.1589 31.6411C40.4227 31.5801 40.6538 31.523 40.8521 31.4699C40.9513 31.4433 41.1001 31.4034 41.2984 31.3503C41.5058 31.2947 41.7356 31.2331 41.9881 31.1655C42.2381 31.0888 42.4881 31.0122 42.7381 30.9355C42.9881 30.8589 43.2168 30.7928 43.4242 30.7372C43.6291 30.6726 43.789 30.6202 43.9037 30.5797ZM45.9028 31.1166L43.5877 31.7804L43.9037 30.5797L44.4741 30.166C44.5702 30.092 44.6874 30.0605 44.8257 30.0718C44.9844 30.0872 45.1898 30.1144 45.4417 30.1531C45.7003 30.1805 45.8876 30.2124 46.0037 30.249C46.1083 30.2789 46.1448 30.3609 46.1131 30.495L45.9028 31.1166ZM40.8984 38.458L40.5726 38.2699C40.4926 38.2237 40.4733 38.1516 40.5146 38.0536C41.0537 37.397 41.5279 36.7144 41.9371 36.0056C42.3528 35.2855 42.6962 34.5654 42.9671 33.8454C43.247 33.123 43.4538 32.4347 43.5877 31.7804L44.6592 31.073L45.9028 31.1166C45.7132 31.9598 45.3959 32.813 44.9509 33.6762C44.5148 34.5371 43.9741 35.368 43.3288 36.169C42.6834 36.97 41.9577 37.7055 41.1517 38.3757C41.049 38.4611 40.9646 38.4886 40.8984 38.458ZM40.0848 29.255L40.1729 29.043C40.8083 28.9983 41.4341 28.9176 42.0502 28.8009C42.6639 28.6751 43.1769 28.5521 43.5891 28.432C43.7604 28.3861 43.8864 28.4055 43.9671 28.4901C44.0429 28.5568 44.1047 28.661 44.1523 28.8028C44.1976 28.9357 44.2236 29.0688 44.2304 29.2023C44.2371 29.3357 44.2129 29.4437 44.1577 29.5261C44.1091 29.5971 44.0172 29.6507 43.8819 29.687C43.7106 29.7329 43.4955 29.7953 43.2365 29.8744C42.975 29.9445 42.716 30.0235 42.4594 30.1116C42.2094 30.1883 41.9966 30.2598 41.8211 30.3261C41.7244 30.3617 41.6432 30.3834 41.5777 30.3913C41.5122 30.3992 41.4464 30.3879 41.3802 30.3573C41.2045 30.2787 40.9976 30.1554 40.7593 29.9874C40.521 29.8193 40.3155 29.6473 40.1427 29.4714C40.0849 29.3999 40.0656 29.3278 40.0848 29.255ZM46.7171 36.3192L43.5935 34.3443L46.0311 34.2999L46.7724 34.3621C46.9355 34.502 47.114 34.6813 47.3079 34.8999C47.5017 35.1185 47.6507 35.296 47.7549 35.4323C47.9265 35.6762 47.9989 35.8742 47.9721 36.0264C47.9452 36.1785 47.8546 36.3091 47.7002 36.4181C47.5434 36.5181 47.3901 36.5591 47.2404 36.5413C47.17 36.5311 47.0858 36.5054 46.9878 36.464C46.8873 36.4136 46.7971 36.3654 46.7171 36.3192ZM46.0311 34.2999L45.9321 34.4714L43.5935 34.3443L44.1252 33.2452L46.0311 34.2999Z" fill="#7D7D7D"/>
</g>
<defs>
<clipPath id="clip0_310_1237">
<rect width="70" height="70" fill="white"/>
</clipPath>
</defs>
</svg>
