<svg width="70" height="70" viewBox="0 0 70 70" fill="none" xmlns="http://www.w3.org/2000/svg">
<g clip-path="url(#clip0_310_1241)">
<rect width="70" height="70" fill="white"/>
<circle cx="35" cy="35" r="34.5" fill="#F3F0E9" stroke="#282828"/>
<path d="M23.3513 44.841C22.2604 45.1333 21.3899 45.1299 20.7396 44.8306C20.0959 44.52 19.6835 44.0266 19.5023 43.3504C19.3357 42.7284 19.4107 42.143 19.7275 41.5943C20.0533 41.0432 20.5971 40.5303 21.3589 40.0557L21.3371 39.9745L21.5429 40.0933C21.3011 40.5253 21.1552 40.9364 21.1052 41.3266C21.0527 41.7079 21.0905 42.1374 21.2185 42.6152C21.4142 43.3454 21.6989 43.8489 22.0726 44.1256C22.4528 44.3909 22.8954 44.4559 23.4003 44.3206C23.8961 44.1878 24.2328 43.9478 24.4103 43.6007C24.5945 43.2421 24.6189 42.8104 24.4836 42.3056C24.3943 41.972 24.2376 41.6758 24.0136 41.4169C23.7987 41.1557 23.4825 40.9312 23.065 40.7435C22.6566 40.5534 22.1108 40.4098 21.4277 40.3126C20.554 40.1892 19.8487 39.9192 19.312 39.5026C18.7818 39.0746 18.4261 38.5225 18.2449 37.8463C18.0952 37.2874 18.109 36.7619 18.2863 36.2699C18.4637 35.7779 18.7701 35.3528 19.2056 34.9945C19.641 34.6363 20.1743 34.3726 20.8053 34.2035C21.4995 34.0175 22.0965 33.9735 22.5962 34.0715C23.1049 34.1671 23.5158 34.3662 23.8288 34.6688C24.1394 34.9625 24.3502 35.3166 24.4613 35.7313C24.5894 36.2091 24.5253 36.7094 24.2693 37.2322C24.0198 37.7435 23.5091 38.2717 22.7372 38.8167L22.748 38.8573L22.6109 38.7781C22.7913 38.3336 22.8894 37.9063 22.9051 37.4963C22.9184 37.0772 22.8587 36.6197 22.7258 36.1239C22.5833 35.592 22.3456 35.1919 22.0128 34.9235C21.6891 34.6528 21.3108 34.5754 20.8781 34.6913C20.6347 34.7565 20.4217 34.8812 20.2391 35.0654C20.0566 35.2496 19.9291 35.477 19.8567 35.7477C19.7818 36.0093 19.7867 36.2979 19.8712 36.6134C19.9461 36.8929 20.0763 37.1624 20.2618 37.4219C20.4539 37.6699 20.7451 37.8914 21.1355 38.0864C21.535 38.2789 22.0775 38.4282 22.763 38.5344C23.7708 38.6895 24.5554 38.9672 25.1168 39.3676C25.6758 39.7589 26.0459 40.2926 26.2271 40.9688C26.3817 41.5458 26.3784 42.0926 26.2173 42.6092C26.0538 43.1168 25.7342 43.5648 25.2585 43.9532C24.7804 44.3325 24.1446 44.6285 23.3513 44.841ZM33.1689 33.7025C33.309 34.2254 33.297 34.7214 33.1328 35.1906C32.9686 35.6597 32.6778 36.071 32.2604 36.4244C31.843 36.7778 31.3233 37.0379 30.7012 37.2045C30.0882 37.3688 29.5125 37.4023 28.9743 37.3049C28.4361 37.2075 27.9741 36.998 27.5884 36.6762C27.2116 36.352 26.9532 35.9284 26.8131 35.4056C26.673 34.8827 26.6862 34.3912 26.8528 33.931C27.026 33.4595 27.3225 33.0515 27.7424 32.7071C28.1598 32.3537 28.675 32.0948 29.288 31.9306C29.9101 31.7639 30.4902 31.7292 31.0284 31.8266C31.5642 31.9149 32.0205 32.1212 32.3972 32.4454C32.7716 32.7606 33.0288 33.1796 33.1689 33.7025ZM31.3433 34.1917C31.237 33.795 31.0262 33.5133 30.711 33.3465C30.3958 33.1798 30.0398 33.1495 29.6431 33.2558C29.2465 33.3621 28.9533 33.5663 28.7637 33.8683C28.5741 34.1704 28.5324 34.5197 28.6387 34.9164C28.7426 35.304 28.9521 35.5813 29.2674 35.748C29.5802 35.9058 29.9349 35.9315 30.3316 35.8252C30.7283 35.7189 31.0226 35.5193 31.2147 35.2262C31.4043 34.9242 31.4472 34.5793 31.3433 34.1917ZM36.2199 36.8129L36.5097 37.8947C36.3835 37.9285 36.1987 37.978 35.9553 38.0433C35.7209 38.1061 35.455 38.1773 35.1574 38.257C34.869 38.3343 34.5817 38.4161 34.2956 38.5025C34.0161 38.5773 33.7649 38.6495 33.5419 38.7189C33.3166 38.7793 33.1555 38.8273 33.0587 38.8629C32.8899 38.9178 32.684 38.9971 32.4413 39.1008C32.2075 39.2021 32.002 39.3006 31.8248 39.3964C31.5566 39.333 31.2856 39.2413 31.0119 39.1214C30.7382 39.0015 30.4883 38.8801 30.2621 38.7571C30.1935 38.7175 30.163 38.658 30.1708 38.5786L30.2345 38.3297C30.4605 38.3078 30.7304 38.2693 31.0442 38.2142C31.358 38.1591 31.6005 38.1086 31.7718 38.0627C31.907 38.0265 32.1234 37.9685 32.4209 37.8888C32.7184 37.809 33.0565 37.7185 33.4351 37.617C33.8113 37.5065 34.1888 37.4006 34.5674 37.2991C34.9436 37.1886 35.2805 37.0935 35.578 37.0138C35.8731 36.9251 36.0871 36.8581 36.2199 36.8129ZM39.5154 41.539L33.5491 43.1811L33.9786 41.863C34.1409 41.8195 34.3392 41.7664 34.5736 41.7036C34.817 41.6384 35.0739 41.5695 35.3444 41.4971C35.6239 41.4222 35.9033 41.3473 36.1828 41.2724C36.4623 41.1975 36.7225 41.123 36.9635 41.0487C37.216 40.9811 37.4266 40.9198 37.5955 40.8649L37.9838 40.5289C38.2067 40.4595 38.4571 40.4021 38.7348 40.3567C39.0215 40.3089 39.2475 40.2869 39.4129 40.291C39.6052 40.2877 39.7244 40.3717 39.7703 40.543C39.8234 40.7414 39.8456 40.9142 39.8367 41.0615C39.8279 41.2088 39.807 41.311 39.774 41.3682C39.7368 41.4458 39.6506 41.5027 39.5154 41.539ZM34.0732 41.8377L33.5491 43.1811C33.0779 43.2977 32.7132 43.2891 32.4551 43.1554C32.2061 43.0192 32.032 42.7663 31.933 42.3966L31.7554 41.734L33.6351 41.2304L33.7402 41.6225C33.7909 41.8118 33.9019 41.8836 34.0732 41.8377ZM33.6605 41.325L31.7808 41.8287L31.6286 41.2607C31.5119 41.1857 31.375 41.1257 31.2181 41.0808C31.0611 41.0359 30.893 41.0037 30.7138 40.984L30.6764 40.5738C30.6775 40.5058 30.7231 40.4598 30.8133 40.4356C31.0116 40.3825 31.2698 40.3181 31.5877 40.2426C31.9123 40.1556 32.2347 40.0789 32.5551 40.0124C32.873 39.9369 33.1201 39.8852 33.2962 39.8573L33.5409 40.8788L33.6605 41.325ZM38.0079 37.3193L36.1717 37.9853L36.2063 36.8165L36.7226 36.4173C36.7917 36.3504 36.8863 36.3251 37.0066 36.3412C37.1335 36.3458 37.3024 36.3634 37.5135 36.3938C37.7336 36.4218 37.8947 36.4462 37.9969 36.4671C38.0836 36.5019 38.12 36.5839 38.1064 36.7132L38.0079 37.3193ZM38.0283 38.5314L36.4055 38.9662C36.4066 38.8982 36.3903 38.8012 36.3565 38.6749C36.3292 38.5373 36.2975 38.4009 36.2613 38.2656C36.2251 38.1304 36.194 38.0324 36.168 37.9718L38.0043 37.3058C38.0242 37.4164 38.0367 37.5532 38.0417 37.7161C38.0533 37.8676 38.0592 38.0158 38.0594 38.1607C38.0596 38.3056 38.0492 38.4291 38.0283 38.5314ZM38.4893 39.4949L33.4733 40.8969L33.2015 39.8827C33.3368 39.8464 33.5036 39.8017 33.7019 39.7486C33.9092 39.693 34.1301 39.6338 34.3645 39.571C34.5965 39.4992 34.8252 39.4331 35.0506 39.3727C35.285 39.3099 35.4968 39.2531 35.6861 39.2024C35.873 39.1427 36.0194 39.0938 36.1252 39.0558L36.5695 38.8208C36.8681 38.6731 37.1211 38.5715 37.3284 38.516C37.5358 38.4604 37.7122 38.4518 37.8578 38.4901L38.3142 38.5707C38.4164 38.5916 38.4796 38.6472 38.5038 38.7373C38.5424 38.8816 38.5573 39.0273 38.5485 39.1746C38.5372 39.3129 38.5175 39.4197 38.4893 39.4949ZM37.1621 35.8937L36.0667 36.1872C35.9854 36.064 35.8905 35.872 35.7819 35.6113C35.6824 35.348 35.5862 35.0791 35.4933 34.8045C35.4004 34.5298 35.3322 34.3114 35.2887 34.1491L34.3828 30.7683C34.2606 30.6368 34.0843 30.5198 33.854 30.4173C33.6326 30.3123 33.3971 30.245 33.1476 30.2152L33.1883 29.61C33.1961 29.5307 33.263 29.4741 33.3892 29.4403C33.6261 29.3865 33.8993 29.3422 34.2088 29.3076C34.5184 29.273 34.8181 29.2555 35.1079 29.2551C35.4043 29.2434 35.649 29.2551 35.842 29.2903C36.0122 29.3124 36.116 29.4295 36.1536 29.6417L36.3278 30.5081L37.0597 33.2397C37.1201 33.4651 37.1667 33.7473 37.1996 34.0864C37.2325 34.4254 37.2449 34.7603 37.2369 35.091C37.2379 35.4192 37.2129 35.6868 37.1621 35.8937ZM51.8535 31.8267L49.4276 32.5636L49.1232 31.4277L50.187 31.0702L50.54 30.6568C50.7449 30.5922 50.9715 30.5363 51.2198 30.4891C51.4746 30.4305 51.6688 30.3978 51.8022 30.391C52.0126 30.383 52.1522 30.4712 52.221 30.6557C52.2849 30.8221 52.3194 30.9868 52.3244 31.1497C52.3294 31.3127 52.3145 31.4374 52.2797 31.524C52.2516 31.5992 52.1915 31.6636 52.0996 31.7172C52.0167 31.7685 51.9347 31.8049 51.8535 31.8267ZM50.9285 38.8142L49.8872 39.0932C49.8288 38.9832 49.7474 38.7876 49.6431 38.5064C49.5411 38.2342 49.4307 37.9304 49.3119 37.595C49.1997 37.2483 49.098 36.9228 49.0068 36.6187C48.9132 36.3056 48.8447 36.0679 48.8012 35.9056L46.5547 27.5214C46.4211 27.3833 46.2345 27.2642 45.9951 27.1641C45.7648 27.0615 45.5191 26.9921 45.2581 26.9557L45.3025 26.3641C45.3109 26.3232 45.3261 26.2901 45.3484 26.2648C45.3706 26.2395 45.4177 26.2172 45.4899 26.1979C45.7357 26.1417 46.0134 26.0963 46.323 26.0616C46.6416 26.0246 46.9548 26.0035 47.2626 25.9983C47.568 25.9841 47.8172 25.9946 48.0103 26.0299C48.1894 26.0495 48.2978 26.1654 48.3353 26.3776L48.5032 27.2747L50.5324 34.8475C50.5952 35.0819 50.6578 35.3695 50.7201 35.7104C50.78 36.0422 50.8312 36.3956 50.8738 36.7707C50.9163 37.1458 50.9417 37.511 50.9499 37.8663C50.9696 38.2282 50.9625 38.5442 50.9285 38.8142ZM43.9368 30.5709L44.2194 31.6257C44.0842 31.6619 43.9084 31.709 43.692 31.767C43.4846 31.8226 43.2638 31.8817 43.0294 31.9445C42.804 32.0049 42.5978 32.065 42.4109 32.1247C42.2216 32.1755 42.0831 32.2174 41.9953 32.2506C41.8535 32.2983 41.6805 32.3736 41.4762 32.4767C41.2785 32.5683 41.1148 32.6605 40.985 32.7532C40.7192 32.6988 40.4531 32.6252 40.1866 32.5323C39.9178 32.4304 39.6759 32.3213 39.4612 32.2049C39.3902 32.1563 39.3585 32.0923 39.3663 32.013L39.4264 31.7505C39.6704 31.7237 39.9256 31.6843 40.1919 31.6323C40.4557 31.5713 40.6868 31.5142 40.8852 31.461C40.9843 31.4345 41.1331 31.3946 41.3314 31.3415C41.5388 31.2859 41.7687 31.2243 42.0211 31.1567C42.2711 31.08 42.5211 31.0033 42.7711 30.9267C43.0211 30.85 43.2498 30.7839 43.4572 30.7284C43.6621 30.6638 43.822 30.6113 43.9368 30.5709ZM45.9358 31.1078L43.6208 31.7716L43.9368 30.5709L44.5071 30.1572C44.6032 30.0831 44.7204 30.0517 44.8587 30.063C45.0174 30.0784 45.2228 30.1055 45.4748 30.1443C45.7333 30.1716 45.9206 30.2036 46.0367 30.2401C46.1413 30.27 46.1778 30.3521 46.1461 30.4862L45.9358 31.1078ZM40.9314 38.4492L40.6056 38.2611C40.5256 38.2149 40.5063 38.1428 40.5476 38.0447C41.0867 37.3881 41.5609 36.7055 41.9701 35.9968C42.3858 35.2766 42.7292 34.5566 43.0001 33.8366C43.28 33.1142 43.4869 32.4259 43.6208 31.7716L44.6922 31.0642L45.9358 31.1078C45.7463 31.9509 45.4289 32.8041 44.9839 33.6674C44.5478 34.5282 44.0071 35.3592 43.3618 36.1602C42.7164 36.9611 41.9907 37.6967 41.1847 38.3668C41.082 38.4523 40.9976 38.4798 40.9314 38.4492ZM40.1178 29.2462L40.2059 29.0341C40.8413 28.9895 41.4671 28.9088 42.0832 28.792C42.6969 28.6662 43.2099 28.5433 43.6222 28.4231C43.7934 28.3772 43.9194 28.3966 44.0001 28.4813C44.0759 28.5479 44.1377 28.6522 44.1853 28.794C44.2306 28.9268 44.2566 29.06 44.2634 29.1934C44.2701 29.3269 44.2459 29.4348 44.1907 29.5173C44.1421 29.5883 44.0502 29.6419 43.9149 29.6781C43.7437 29.724 43.5285 29.7865 43.2695 29.8656C43.008 29.9356 42.749 30.0147 42.4924 30.1028C42.2424 30.1794 42.0296 30.2509 41.8542 30.3173C41.7574 30.3528 41.6763 30.3746 41.6107 30.3825C41.5452 30.3904 41.4794 30.379 41.4132 30.3485C41.2375 30.2699 41.0306 30.1466 40.7923 29.9785C40.554 29.8105 40.3485 29.6385 40.1757 29.4625C40.1179 29.3911 40.0986 29.3189 40.1178 29.2462ZM46.7501 36.3103L43.6265 34.3355L46.0641 34.2911L46.8055 34.3533C46.9686 34.4932 47.147 34.6724 47.3409 34.891C47.5347 35.1096 47.6838 35.2871 47.7879 35.4235C47.9596 35.6674 48.0319 35.8654 48.0051 36.0175C47.9782 36.1697 47.8876 36.3002 47.7332 36.4092C47.5764 36.5092 47.4231 36.5503 47.2734 36.5324C47.2031 36.5223 47.1189 36.4965 47.0208 36.4552C46.9203 36.4048 46.8301 36.3565 46.7501 36.3103ZM46.0641 34.2911L45.9651 34.4625L43.6265 34.3355L44.1582 33.2364L46.0641 34.2911Z" fill="#7D7D7D"/>
</g>
<defs>
<clipPath id="clip0_310_1241">
<rect width="70" height="70" fill="white"/>
</clipPath>
</defs>
</svg>
