<svg width="70" height="70" viewBox="0 0 70 70" fill="none" xmlns="http://www.w3.org/2000/svg">
<g clip-path="url(#clip0_310_1245)">
<rect width="70" height="70" fill="white"/>
<circle cx="35" cy="35" r="34.5" fill="#F3F0E9" stroke="#282828"/>
<path d="M20.8673 45.5501L20.6811 45.1797C21.581 44.5714 22.2662 43.9191 22.7367 43.223C23.2048 42.5178 23.4723 41.7311 23.5392 40.8628C23.6037 39.9856 23.4862 38.988 23.1866 37.8701C22.9475 36.9776 22.696 36.2913 22.4321 35.8113C22.1747 35.3198 21.9089 34.9949 21.6346 34.8365C21.3578 34.6691 21.0797 34.6228 20.8002 34.6977C20.5478 34.7653 20.3388 34.9228 20.1731 35.1701C20.0051 35.4084 19.9066 35.744 19.8776 36.1769C19.8553 36.5983 19.9275 37.1201 20.0941 37.7422C20.3164 38.5716 20.6436 39.1796 21.0757 39.5663C21.5169 39.9505 22.0034 40.0714 22.5353 39.9289C22.8148 39.854 23.0461 39.7437 23.2293 39.598C23.4101 39.4432 23.5731 39.2401 23.7182 38.9886L24.0583 39.0135L23.9095 39.0534C23.8113 39.4082 23.5884 39.7481 23.2407 40.0732C22.902 40.3959 22.4396 40.6357 21.8536 40.7927C21.2676 40.9497 20.7134 40.9726 20.1908 40.8614C19.6772 40.7478 19.2305 40.5052 18.8507 40.1335C18.4685 39.7528 18.1928 39.2469 18.0237 38.6158C17.8208 37.8585 17.814 37.184 18.0033 36.5921C18.1901 35.9913 18.5157 35.4934 18.9799 35.0985C19.4442 34.7035 19.9919 34.4215 20.6229 34.2524C21.4163 34.0398 22.1293 34.0323 22.762 34.23C23.4038 34.4252 23.9558 34.8087 24.4182 35.3805C24.8783 35.9433 25.229 36.6755 25.4706 37.577C25.7581 38.6498 25.7518 39.6902 25.4518 40.6982C25.1608 41.7038 24.6193 42.6219 23.8273 43.4525C23.0443 44.2807 22.0577 44.9799 20.8673 45.5501ZM33.1755 33.7008C33.3156 34.2236 33.3036 34.7197 33.1394 35.1888C32.9752 35.6579 32.6844 36.0692 32.267 36.4226C31.8496 36.776 31.3299 37.0361 30.7078 37.2028C30.0948 37.367 29.5191 37.4005 28.9809 37.3031C28.4427 37.2058 27.9807 36.9962 27.595 36.6744C27.2182 36.3502 26.9598 35.9267 26.8197 35.4038C26.6796 34.8809 26.6928 34.3894 26.8594 33.9293C27.0326 33.4577 27.3291 33.0497 27.749 32.7053C28.1664 32.3519 28.6816 32.0931 29.2946 31.9288C29.9167 31.7621 30.4968 31.7275 31.035 31.8248C31.5708 31.9132 32.0271 32.1194 32.4038 32.4436C32.7782 32.7588 33.0354 33.1779 33.1755 33.7008ZM31.3499 34.1899C31.2436 33.7932 31.0328 33.5115 30.7176 33.3448C30.4024 33.178 30.0464 33.1478 29.6497 33.2541C29.2531 33.3604 28.9599 33.5645 28.7703 33.8665C28.5807 34.1686 28.539 34.5179 28.6453 34.9146C28.7492 35.3023 28.9587 35.5795 29.274 35.7462C29.5868 35.904 29.9415 35.9297 30.3382 35.8234C30.7349 35.7171 31.0292 35.5175 31.2213 35.2245C31.4109 34.9224 31.4538 34.5776 31.3499 34.1899ZM36.2265 36.8111L36.5163 37.8929C36.3901 37.9267 36.2053 37.9763 35.9619 38.0415C35.7275 38.1043 35.4616 38.1756 35.164 38.2553C34.8756 38.3326 34.5883 38.4144 34.3022 38.5007C34.0227 38.5756 33.7715 38.6477 33.5485 38.7171C33.3232 38.7775 33.1621 38.8255 33.0653 38.8611C32.8965 38.916 32.6906 38.9953 32.4479 39.099C32.2141 39.2003 32.0086 39.2988 31.8314 39.3946C31.5632 39.3312 31.2922 39.2396 31.0185 39.1197C30.7448 38.9997 30.4949 38.8783 30.2687 38.7553C30.2001 38.7157 30.1696 38.6562 30.1774 38.5769L30.2411 38.3279C30.4671 38.306 30.737 38.2675 31.0508 38.2124C31.3646 38.1573 31.6071 38.1068 31.7784 38.0609C31.9136 38.0247 32.13 37.9667 32.4275 37.887C32.725 37.8073 33.0631 37.7167 33.4417 37.6152C33.8179 37.5048 34.1954 37.3988 34.574 37.2973C34.9502 37.1869 35.2871 37.0918 35.5846 37.0121C35.8797 36.9233 36.0937 36.8563 36.2265 36.8111ZM39.522 41.5372L33.5557 43.1793L33.9852 41.8613C34.1475 41.8178 34.3458 41.7646 34.5802 41.7018C34.8236 41.6366 35.0805 41.5678 35.351 41.4953C35.6305 41.4204 35.9099 41.3455 36.1894 41.2706C36.4689 41.1957 36.7291 41.1212 36.9701 41.0469C37.2226 40.9793 37.4332 40.918 37.6021 40.8631L37.9904 40.5272C38.2133 40.4578 38.4637 40.4004 38.7414 40.3549C39.0281 40.3071 39.2541 40.2852 39.4195 40.2892C39.6119 40.286 39.731 40.37 39.7769 40.5413C39.83 40.7396 39.8522 40.9124 39.8433 41.0597C39.8345 41.207 39.8136 41.3093 39.7806 41.3664C39.7434 41.444 39.6572 41.501 39.522 41.5372ZM34.0798 41.8359L33.5557 43.1793C33.0845 43.2959 32.7198 43.2873 32.4617 43.1536C32.2127 43.0174 32.0386 42.7645 31.9396 42.3949L31.762 41.7322L33.6417 41.2286L33.7468 41.6208C33.7975 41.8101 33.9085 41.8818 34.0798 41.8359ZM33.6671 41.3232L31.7874 41.8269L31.6352 41.2589C31.5185 41.1839 31.3816 41.124 31.2247 41.0791C31.0677 41.0342 30.8996 41.0019 30.7204 40.9823L30.683 40.572C30.6841 40.5041 30.7297 40.458 30.8199 40.4339C31.0182 40.3807 31.2764 40.3164 31.5943 40.2408C31.9189 40.1539 32.2413 40.0771 32.5617 40.0106C32.8796 39.9351 33.1267 39.8834 33.3028 39.8555L33.5475 40.877L33.6671 41.3232ZM38.0145 37.3176L36.1783 37.9835L36.2129 36.8147L36.7292 36.4155C36.7983 36.3487 36.8929 36.3233 37.0132 36.3394C37.1401 36.3441 37.309 36.3616 37.5201 36.392C37.7402 36.42 37.9013 36.4444 38.0035 36.4654C38.0902 36.5001 38.1266 36.5822 38.113 36.7114L38.0145 37.3176ZM38.0349 38.5296L36.4121 38.9644C36.4132 38.8965 36.3969 38.7994 36.3631 38.6732C36.3358 38.5355 36.3041 38.3991 36.2679 38.2639C36.2317 38.1286 36.2006 38.0307 36.1746 37.97L38.0109 37.304C38.0308 37.4146 38.0433 37.5514 38.0483 37.7143C38.0599 37.8658 38.0658 38.014 38.066 38.1589C38.0662 38.3038 38.0558 38.4274 38.0349 38.5296ZM38.496 39.4931L33.4799 40.8951L33.2081 39.8809C33.3434 39.8447 33.5102 39.8 33.7085 39.7468C33.9158 39.6913 34.1367 39.6321 34.3711 39.5693C34.6031 39.4974 34.8318 39.4313 35.0572 39.3709C35.2916 39.3081 35.5034 39.2514 35.6927 39.2006C35.8797 39.1409 36.026 39.092 36.1318 39.054L36.5761 38.819C36.8747 38.6714 37.1277 38.5698 37.335 38.5142C37.5424 38.4586 37.7188 38.45 37.8644 38.4883L38.3208 38.5689C38.423 38.5899 38.4862 38.6454 38.5104 38.7355C38.549 38.8798 38.5639 39.0256 38.5551 39.1729C38.5438 39.3112 38.5241 39.4179 38.496 39.4931ZM37.1687 35.8919L36.0733 36.1854C35.992 36.0623 35.8971 35.8703 35.7885 35.6095C35.689 35.3463 35.5928 35.0773 35.4999 34.8027C35.407 34.5281 35.3388 34.3096 35.2953 34.1473L34.3894 30.7666C34.2672 30.6351 34.0909 30.518 33.8606 30.4155C33.6392 30.3106 33.4037 30.2432 33.1542 30.2134L33.1949 29.6083C33.2027 29.5289 33.2696 29.4723 33.3958 29.4385C33.6327 29.3847 33.9059 29.3405 34.2154 29.3058C34.525 29.2712 34.8247 29.2537 35.1145 29.2534C35.4109 29.2416 35.6556 29.2533 35.8486 29.2886C36.0188 29.3106 36.1226 29.4277 36.1602 29.6399L36.3344 30.5063L37.0663 33.238C37.1267 33.4634 37.1733 33.7456 37.2062 34.0846C37.2391 34.4237 37.2515 34.7585 37.2435 35.0892C37.2445 35.4175 37.2195 35.685 37.1687 35.8919ZM51.8601 31.8249L49.4342 32.5619L49.1298 31.4259L50.1936 31.0685L50.5466 30.655C50.7515 30.5904 50.9781 30.5345 51.2264 30.4874C51.4812 30.4287 51.6754 30.396 51.8088 30.3893C52.0192 30.3812 52.1588 30.4694 52.2276 30.6539C52.2915 30.8204 52.326 30.985 52.331 31.148C52.336 31.3109 52.3211 31.4357 52.2863 31.5223C52.2582 31.5975 52.1981 31.6619 52.1062 31.7155C52.0233 31.7667 51.9413 31.8032 51.8601 31.8249ZM50.9351 38.8124L49.8938 39.0914C49.8354 38.9815 49.754 38.7859 49.6497 38.5046C49.5477 38.2324 49.4373 37.9286 49.3185 37.5933C49.2063 37.2465 49.1046 36.9211 49.0134 36.617C48.9199 36.3038 48.8513 36.0661 48.8078 35.9039L46.5613 27.5196C46.4277 27.3815 46.2411 27.2624 46.0017 27.1623C45.7714 27.0598 45.5257 26.9903 45.2647 26.9539L45.3091 26.3623C45.3175 26.3214 45.3327 26.2883 45.355 26.263C45.3772 26.2378 45.4243 26.2155 45.4965 26.1961C45.7423 26.1399 46.02 26.0945 46.3296 26.0599C46.6482 26.0228 46.9614 26.0017 47.2692 25.9965C47.5746 25.9823 47.8238 25.9928 48.0169 26.0281C48.196 26.0477 48.3044 26.1636 48.3419 26.3758L48.5098 27.2729L50.539 34.8458C50.6018 35.0802 50.6644 35.3678 50.7267 35.7086C50.7866 36.0404 50.8378 36.3938 50.8804 36.7689C50.9229 37.144 50.9483 37.5093 50.9565 37.8646C50.9762 38.2265 50.9691 38.5424 50.9351 38.8124ZM43.9434 30.5691L44.226 31.6239C44.0908 31.6601 43.915 31.7072 43.6986 31.7652C43.4912 31.8208 43.2704 31.88 43.036 31.9428C42.8106 32.0032 42.6044 32.0632 42.4175 32.123C42.2282 32.1737 42.0897 32.2157 42.0019 32.2488C41.8601 32.2965 41.6871 32.3718 41.4828 32.4749C41.2851 32.5665 41.1214 32.6587 40.9916 32.7514C40.7258 32.6971 40.4597 32.6234 40.1932 32.5306C39.9244 32.4287 39.6826 32.3195 39.4678 32.2032C39.3968 32.1545 39.3651 32.0906 39.3729 32.0112L39.433 31.7487C39.677 31.7219 39.9322 31.6826 40.1985 31.6305C40.4623 31.5695 40.6934 31.5124 40.8918 31.4593C40.9909 31.4327 41.1397 31.3928 41.338 31.3397C41.5454 31.2841 41.7753 31.2225 42.0277 31.1549C42.2777 31.0782 42.5277 31.0016 42.7777 30.9249C43.0277 30.8483 43.2564 30.7822 43.4638 30.7266C43.6687 30.662 43.8286 30.6095 43.9434 30.5691ZM45.9424 31.106L43.6274 31.7698L43.9434 30.5691L44.5137 30.1554C44.6098 30.0813 44.727 30.0499 44.8653 30.0612C45.0241 30.0766 45.2294 30.1037 45.4814 30.1425C45.7399 30.1699 45.9272 30.2018 46.0433 30.2383C46.1479 30.2683 46.1844 30.3503 46.1527 30.4844L45.9424 31.106ZM40.938 38.4474L40.6122 38.2593C40.5322 38.2131 40.5129 38.141 40.5542 38.0429C41.0934 37.3864 41.5675 36.7037 41.9767 35.995C42.3925 35.2749 42.7358 34.5548 43.0067 33.8348C43.2866 33.1124 43.4935 32.4241 43.6274 31.7698L44.6988 31.0624L45.9424 31.106C45.7529 31.9491 45.4355 32.8023 44.9905 33.6656C44.5544 34.5265 44.0137 35.3574 43.3684 36.1584C42.723 36.9594 41.9973 37.6949 41.1913 38.365C41.0886 38.4505 41.0042 38.478 40.938 38.4474ZM40.1244 29.2444L40.2125 29.0324C40.8479 28.9877 41.4737 28.907 42.0898 28.7902C42.7035 28.6645 43.2165 28.5415 43.6288 28.4214C43.8 28.3755 43.926 28.3948 44.0067 28.4795C44.0825 28.5462 44.1443 28.6504 44.1919 28.7922C44.2372 28.925 44.2632 29.0582 44.27 29.1916C44.2767 29.3251 44.2525 29.4331 44.1973 29.5155C44.1487 29.5865 44.0568 29.6401 43.9215 29.6763C43.7503 29.7222 43.5351 29.7847 43.2761 29.8638C43.0146 29.9338 42.7556 30.0129 42.499 30.101C42.249 30.1777 42.0362 30.2491 41.8608 30.3155C41.764 30.3511 41.6829 30.3728 41.6173 30.3807C41.5518 30.3886 41.486 30.3773 41.4198 30.3467C41.2442 30.2681 41.0372 30.1448 40.7989 29.9768C40.5606 29.8087 40.3551 29.6367 40.1823 29.4608C40.1245 29.3893 40.1052 29.3172 40.1244 29.2444ZM46.7567 36.3085L43.6331 34.3337L46.0707 34.2893L46.8121 34.3515C46.9752 34.4914 47.1536 34.6707 47.3475 34.8893C47.5413 35.1079 47.6904 35.2854 47.7945 35.4217C47.9662 35.6656 48.0385 35.8636 48.0117 36.0157C47.9848 36.1679 47.8942 36.2985 47.7398 36.4075C47.583 36.5075 47.4297 36.5485 47.28 36.5307C47.2097 36.5205 47.1255 36.4948 47.0274 36.4534C46.9269 36.403 46.8367 36.3547 46.7567 36.3085ZM46.0707 34.2893L45.9717 34.4607L43.6331 34.3337L44.1648 33.2346L46.0707 34.2893Z" fill="#7D7D7D"/>
</g>
<defs>
<clipPath id="clip0_310_1245">
<rect width="70" height="70" fill="white"/>
</clipPath>
</defs>
</svg>
