<svg width="243" height="60" viewBox="0 0 243 60" fill="none" xmlns="http://www.w3.org/2000/svg">
<g clip-path="url(#clip0_178_819)">
<rect width="243" height="60" fill="#F3F0E9"/>
<path d="M4.9 45L4.204 44.246C7.51 44.246 8.206 41.636 8.322 40.36V5.154H4.552L3.856 4.4H20.038L20.734 5.212C16.442 5.212 16.616 9.678 16.616 9.678V9.968L21.14 7.068C24.33 5.038 27.288 4.168 29.84 4.168C34.828 4.168 38.192 7.416 38.076 11.186C37.902 16.522 30.942 18.552 25.664 20.524L17.95 23.54H20.676C32.45 23.54 39.236 25.454 39.758 32.53C40.28 39.548 34.364 45 22.706 45H4.9ZM16.616 23.25L24.91 19.828C29.666 17.972 31.174 13.738 31.174 11.128C31.174 7.996 29.028 6.43 26.302 6.43C24.736 6.43 22.938 6.952 21.314 7.996L16.616 10.954V23.25ZM16.616 44.246H22.242C28.1 44.246 31.812 39.954 31.232 33.69C30.594 26.788 25.49 24.294 20.096 24.294H16.616V44.246ZM61.3186 45.58C50.4146 45.58 43.3386 38.91 43.3386 30.5C43.3386 21.684 50.6466 15.42 61.3186 15.42C72.2226 15.42 79.1246 22.032 79.1246 30.5C79.1246 38.852 71.9906 45.58 61.3186 45.58ZM60.6226 44.71C67.0026 44.71 70.6566 38.794 70.7726 28.992C70.9466 21.394 67.3506 16.29 61.8986 16.29C55.6926 16.29 51.8066 22.438 51.6326 31.718C51.5166 39.548 55.1126 44.71 60.6226 44.71ZM101.137 45.58C90.233 45.58 83.157 38.91 83.157 30.5C83.157 21.684 90.465 15.42 101.137 15.42C112.041 15.42 118.943 22.032 118.943 30.5C118.943 38.852 111.809 45.58 101.137 45.58ZM100.441 44.71C106.821 44.71 110.475 38.794 110.591 28.992C110.765 21.394 107.169 16.29 101.717 16.29C95.511 16.29 91.625 22.438 91.451 31.718C91.335 39.548 94.931 44.71 100.441 44.71ZM123.497 45L122.801 44.246C125.643 44.246 126.513 42.274 126.803 40.94V16.754H122.975L122.279 16H138.287L138.983 16.754C134.923 16.754 134.923 20.93 134.923 20.93V25.222C137.881 19.886 141.071 15.42 147.045 15.42C153.019 15.42 156.615 19.828 156.963 24.816V44.246H160.849L161.545 45H145.537L144.841 44.246C147.857 44.246 148.669 42.042 148.843 40.65V25.628C148.843 22.902 148.379 17.798 144.435 17.798C141.071 17.798 137.707 21.51 134.923 27.194V44.246H138.809L139.505 45H123.497ZM167.688 7.648C167.688 4.922 169.37 3.124 172.096 3.124C174.822 3.124 176.504 4.922 176.504 7.648C176.504 10.258 174.822 12.056 172.096 12.056C169.37 12.056 167.688 10.258 167.688 7.648ZM164.788 45L164.092 44.246C166.934 44.246 167.804 42.274 168.094 40.94V16.754H164.266L163.57 16H179.578L180.274 16.754C176.214 16.754 176.214 20.93 176.214 20.93V44.246H180.1L180.796 45H164.788ZM213.618 34.966L214.14 35.082L212.168 45H184.27L183.574 44.246C187.518 44.246 189.374 41.578 190.186 40.012L201.844 16.928L198.828 16.986C193.608 17.16 188.562 20.872 184.56 27.136L184.038 27.02L188.214 16.464L214.14 16L214.836 16.754C211.356 16.754 209.326 18.958 208.456 20.698L196.624 44.246H201.844C207.412 44.246 211.182 41.172 213.618 34.966Z" fill="black"/>
<circle cx="230" cy="39" r="6" fill="#FF7342"/>
</g>
<defs>
<clipPath id="clip0_178_819">
<rect width="243" height="60" fill="white"/>
</clipPath>
</defs>
</svg>
